<svg width="368" height="66" viewBox="0 0 368 66" fill="none" xmlns="http://www.w3.org/2000/svg">
<rect width="368" height="66" rx="12" fill="#D9D9D9" fill-opacity="0.5"/>
<path d="M73.1963 29V19.1357H79.6562V20.8379H75.2607V23.4834H79.2734V25.1172H75.2607V29H73.1963ZM81.0252 29V21.4736H83.0213V22.6426H83.1444C83.2674 22.2324 83.493 21.9157 83.8211 21.6924C84.1493 21.4645 84.5571 21.3506 85.0448 21.3506C85.1815 21.3506 85.3136 21.3597 85.4412 21.3779C85.5734 21.3962 85.6896 21.4189 85.7899 21.4463V23.1895C85.6395 23.153 85.4868 23.1257 85.3319 23.1074C85.1815 23.0846 85.0288 23.0732 84.8739 23.0732C84.4956 23.0732 84.1675 23.1439 83.8895 23.2852C83.6115 23.4219 83.3973 23.6178 83.2469 23.873C83.0965 24.1283 83.0213 24.4336 83.0213 24.7891V29H81.0252ZM86.7966 29V21.4736H88.7927V29H86.7966ZM87.8014 20.3184C87.4961 20.3184 87.2318 20.2113 87.0085 19.9971C86.7852 19.7783 86.6735 19.5163 86.6735 19.2109C86.6735 18.901 86.7852 18.639 87.0085 18.4248C87.2318 18.2061 87.4961 18.0967 87.8014 18.0967C88.1113 18.0967 88.3757 18.2061 88.5944 18.4248C88.8132 18.639 88.9225 18.901 88.9225 19.2109C88.9225 19.5163 88.8132 19.7783 88.5944 19.9971C88.3757 20.2113 88.1113 20.3184 87.8014 20.3184ZM93.771 29.1572C93.0099 29.1572 92.3537 29 91.8023 28.6855C91.2554 28.3665 90.8338 27.9154 90.5376 27.332C90.2414 26.7487 90.0933 26.0537 90.0933 25.2471V25.2402C90.0933 24.4427 90.2391 23.75 90.5308 23.1621C90.827 22.5742 91.244 22.1185 91.7818 21.7949C92.3241 21.4714 92.9598 21.3096 93.689 21.3096C94.4227 21.3096 95.0562 21.4668 95.5894 21.7812C96.1226 22.0957 96.5327 22.5355 96.8198 23.1006C97.107 23.6657 97.2505 24.3288 97.2505 25.0898V25.7119H91.0913V24.4609H96.2935L95.357 25.6436V24.8438C95.357 24.3926 95.2863 24.0166 95.145 23.7158C95.0083 23.415 94.8169 23.1895 94.5708 23.0391C94.3293 22.8841 94.0467 22.8066 93.7232 22.8066C93.4042 22.8066 93.1193 22.8864 92.8687 23.0459C92.6226 23.2008 92.4266 23.431 92.2808 23.7363C92.1395 24.0371 92.0689 24.4062 92.0689 24.8438V25.6504C92.0689 26.0742 92.1395 26.4365 92.2808 26.7373C92.4221 27.0381 92.6226 27.2682 92.8823 27.4277C93.1421 27.5872 93.452 27.667 93.812 27.667C94.1037 27.667 94.3521 27.6237 94.5571 27.5371C94.7622 27.4505 94.9263 27.3503 95.0493 27.2363C95.1769 27.1178 95.2635 27.0107 95.3091 26.915L95.3296 26.874H97.189L97.1753 26.9424C97.1161 27.1794 97.009 27.4277 96.854 27.6875C96.6991 27.9427 96.4849 28.182 96.2114 28.4053C95.9426 28.6286 95.6053 28.8109 95.1997 28.9521C94.7987 29.0889 94.3224 29.1572 93.771 29.1572ZM98.5443 29V21.4736H100.54V22.6357H100.663C100.837 22.2256 101.105 21.902 101.47 21.665C101.835 21.4281 102.286 21.3096 102.824 21.3096C103.662 21.3096 104.3 21.5557 104.738 22.0479C105.18 22.5355 105.401 23.2305 105.401 24.1328V29H103.405V24.584C103.405 24.0508 103.293 23.6475 103.07 23.374C102.846 23.1006 102.498 22.9639 102.024 22.9639C101.718 22.9639 101.454 23.0345 101.231 23.1758C101.012 23.3125 100.841 23.5062 100.718 23.7568C100.6 24.0075 100.54 24.3037 100.54 24.6455V29H98.5443ZM109.682 29.1162C109.057 29.1162 108.515 28.9613 108.055 28.6514C107.599 28.3369 107.246 27.8903 106.995 27.3115C106.749 26.7327 106.626 26.0423 106.626 25.2402V25.2266C106.626 24.4199 106.747 23.7272 106.988 23.1484C107.235 22.5697 107.585 22.1253 108.041 21.8154C108.497 21.5055 109.044 21.3506 109.682 21.3506C110.024 21.3506 110.34 21.4053 110.632 21.5146C110.928 21.6195 111.188 21.7699 111.411 21.9658C111.635 22.1618 111.808 22.3988 111.931 22.6768H112.054V18.5957H114.05V29H112.054V27.8311H111.931C111.803 28.0999 111.63 28.3301 111.411 28.5215C111.197 28.7129 110.944 28.861 110.653 28.9658C110.361 29.0661 110.037 29.1162 109.682 29.1162ZM110.359 27.4619C110.714 27.4619 111.019 27.373 111.275 27.1953C111.53 27.0176 111.726 26.7624 111.862 26.4297C112.004 26.097 112.074 25.7028 112.074 25.2471V25.2334C112.074 24.7686 112.004 24.3721 111.862 24.0439C111.726 23.7113 111.528 23.4561 111.268 23.2783C111.013 23.096 110.71 23.0049 110.359 23.0049C110.012 23.0049 109.709 23.096 109.449 23.2783C109.194 23.4561 108.998 23.7113 108.862 24.0439C108.725 24.3721 108.656 24.7663 108.656 25.2266V25.2402C108.656 25.7005 108.725 26.097 108.862 26.4297C108.998 26.7624 109.194 27.0176 109.449 27.1953C109.705 27.373 110.008 27.4619 110.359 27.4619ZM118.769 29.1572C118.085 29.1572 117.502 29.0638 117.019 28.877C116.54 28.6855 116.164 28.4235 115.891 28.0908C115.622 27.7581 115.465 27.3776 115.419 26.9492L115.412 26.9219H117.374L117.388 26.9492C117.47 27.1816 117.625 27.373 117.853 27.5234C118.085 27.6738 118.397 27.749 118.789 27.749C119.044 27.749 119.268 27.7148 119.459 27.6465C119.65 27.5736 119.801 27.4756 119.91 27.3525C120.02 27.2295 120.074 27.0859 120.074 26.9219V26.9082C120.074 26.7077 119.992 26.5413 119.828 26.4092C119.664 26.277 119.391 26.1676 119.008 26.0811L117.75 25.8145C117.272 25.7142 116.873 25.5684 116.554 25.377C116.235 25.181 115.995 24.9417 115.836 24.6592C115.681 24.3766 115.604 24.0485 115.604 23.6748V23.668C115.604 23.194 115.733 22.7816 115.993 22.4307C116.258 22.0752 116.624 21.7995 117.094 21.6035C117.568 21.4076 118.117 21.3096 118.741 21.3096C119.397 21.3096 119.956 21.4098 120.416 21.6104C120.876 21.8063 121.23 22.0706 121.476 22.4033C121.726 22.7314 121.865 23.0983 121.893 23.5039V23.5312H120.04L120.033 23.4971C119.979 23.292 119.842 23.112 119.623 22.957C119.404 22.7975 119.108 22.7178 118.734 22.7178C118.507 22.7178 118.304 22.752 118.126 22.8203C117.948 22.8887 117.807 22.9844 117.702 23.1074C117.602 23.2305 117.552 23.3763 117.552 23.5449V23.5518C117.552 23.6839 117.586 23.8001 117.654 23.9004C117.723 24.0007 117.834 24.0872 117.989 24.1602C118.144 24.2331 118.352 24.2992 118.611 24.3584L119.862 24.625C120.614 24.7891 121.17 25.0352 121.53 25.3633C121.89 25.6914 122.07 26.1335 122.07 26.6895V26.6963C122.07 27.193 121.929 27.626 121.647 27.9951C121.364 28.3643 120.974 28.6514 120.478 28.8564C119.981 29.057 119.411 29.1572 118.769 29.1572ZM128.684 29.1162C128.21 29.1162 127.787 29.0251 127.413 28.8428C127.044 28.6559 126.754 28.3939 126.545 28.0566C126.335 27.7148 126.23 27.3161 126.23 26.8604V26.8467C126.23 26.3955 126.342 26.0081 126.565 25.6846C126.793 25.361 127.123 25.1081 127.556 24.9258C127.994 24.7389 128.525 24.6273 129.149 24.5908L131.952 24.4199V25.6367L129.45 25.8008C129.022 25.8236 128.703 25.9147 128.493 26.0742C128.283 26.2337 128.178 26.4502 128.178 26.7236V26.7373C128.178 27.0244 128.288 27.25 128.507 27.4141C128.725 27.5781 129.008 27.6602 129.354 27.6602C129.664 27.6602 129.94 27.5986 130.181 27.4756C130.423 27.3525 130.614 27.1862 130.756 26.9766C130.897 26.7624 130.967 26.5231 130.967 26.2588V23.8594C130.967 23.5312 130.858 23.2806 130.639 23.1074C130.425 22.9297 130.113 22.8408 129.703 22.8408C129.343 22.8408 129.049 22.9023 128.821 23.0254C128.598 23.1439 128.447 23.3148 128.37 23.5381L128.356 23.5654H126.51L126.517 23.5039C126.572 23.0618 126.738 22.6768 127.016 22.3486C127.299 22.0205 127.677 21.7653 128.151 21.583C128.63 21.4007 129.183 21.3096 129.812 21.3096C130.478 21.3096 131.043 21.4121 131.508 21.6172C131.972 21.8177 132.326 22.1094 132.567 22.4922C132.813 22.8704 132.936 23.3262 132.936 23.8594V29H130.967V28.002H130.844C130.717 28.2344 130.546 28.4349 130.332 28.6035C130.122 28.7676 129.876 28.8952 129.593 28.9863C129.315 29.0729 129.012 29.1162 128.684 29.1162ZM134.551 29V21.4736H136.547V22.6426H136.67C136.794 22.2324 137.019 21.9157 137.347 21.6924C137.675 21.4645 138.083 21.3506 138.571 21.3506C138.708 21.3506 138.84 21.3597 138.967 21.3779C139.1 21.3962 139.216 21.4189 139.316 21.4463V23.1895C139.166 23.153 139.013 23.1257 138.858 23.1074C138.708 23.0846 138.555 23.0732 138.4 23.0732C138.022 23.0732 137.694 23.1439 137.416 23.2852C137.138 23.4219 136.923 23.6178 136.773 23.873C136.623 24.1283 136.547 24.4336 136.547 24.7891V29H134.551ZM143.454 29.1572C142.692 29.1572 142.036 29 141.485 28.6855C140.938 28.3665 140.516 27.9154 140.22 27.332C139.924 26.7487 139.776 26.0537 139.776 25.2471V25.2402C139.776 24.4427 139.922 23.75 140.213 23.1621C140.51 22.5742 140.926 22.1185 141.464 21.7949C142.007 21.4714 142.642 21.3096 143.371 21.3096C144.105 21.3096 144.739 21.4668 145.272 21.7812C145.805 22.0957 146.215 22.5355 146.502 23.1006C146.789 23.6657 146.933 24.3288 146.933 25.0898V25.7119H140.774V24.4609H145.976L145.039 25.6436V24.8438C145.039 24.3926 144.969 24.0166 144.828 23.7158C144.691 23.415 144.499 23.1895 144.253 23.0391C144.012 22.8841 143.729 22.8066 143.406 22.8066C143.087 22.8066 142.802 22.8864 142.551 23.0459C142.305 23.2008 142.109 23.431 141.963 23.7363C141.822 24.0371 141.751 24.4062 141.751 24.8438V25.6504C141.751 26.0742 141.822 26.4365 141.963 26.7373C142.105 27.0381 142.305 27.2682 142.565 27.4277C142.825 27.5872 143.135 27.667 143.495 27.667C143.786 27.667 144.035 27.6237 144.24 27.5371C144.445 27.4505 144.609 27.3503 144.732 27.2363C144.859 27.1178 144.946 27.0107 144.992 26.915L145.012 26.874H146.871L146.858 26.9424C146.799 27.1794 146.691 27.4277 146.537 27.6875C146.382 27.9427 146.167 28.182 145.894 28.4053C145.625 28.6286 145.288 28.8109 144.882 28.9521C144.481 29.0889 144.005 29.1572 143.454 29.1572ZM151.565 29V18.5957H153.561V22.6357H153.684C153.857 22.2256 154.126 21.902 154.49 21.665C154.855 21.4281 155.306 21.3096 155.844 21.3096C156.404 21.3096 156.874 21.4212 157.252 21.6445C157.635 21.8633 157.924 22.1823 158.12 22.6016C158.321 23.0208 158.421 23.5312 158.421 24.1328V29H156.425V24.584C156.425 24.0508 156.313 23.6475 156.09 23.374C155.867 23.1006 155.518 22.9639 155.044 22.9639C154.739 22.9639 154.474 23.0345 154.251 23.1758C154.032 23.3125 153.861 23.5062 153.738 23.7568C153.62 24.0075 153.561 24.3037 153.561 24.6455V29H151.565ZM162.066 29.1162C161.592 29.1162 161.169 29.0251 160.795 28.8428C160.426 28.6559 160.136 28.3939 159.927 28.0566C159.717 27.7148 159.612 27.3161 159.612 26.8604V26.8467C159.612 26.3955 159.724 26.0081 159.947 25.6846C160.175 25.361 160.505 25.1081 160.938 24.9258C161.376 24.7389 161.907 24.6273 162.531 24.5908L165.334 24.4199V25.6367L162.832 25.8008C162.404 25.8236 162.085 25.9147 161.875 26.0742C161.665 26.2337 161.56 26.4502 161.56 26.7236V26.7373C161.56 27.0244 161.67 27.25 161.889 27.4141C162.107 27.5781 162.39 27.6602 162.736 27.6602C163.046 27.6602 163.322 27.5986 163.563 27.4756C163.805 27.3525 163.996 27.1862 164.138 26.9766C164.279 26.7624 164.35 26.5231 164.35 26.2588V23.8594C164.35 23.5312 164.24 23.2806 164.021 23.1074C163.807 22.9297 163.495 22.8408 163.085 22.8408C162.725 22.8408 162.431 22.9023 162.203 23.0254C161.98 23.1439 161.829 23.3148 161.752 23.5381L161.738 23.5654H159.893L159.899 23.5039C159.954 23.0618 160.12 22.6768 160.398 22.3486C160.681 22.0205 161.059 21.7653 161.533 21.583C162.012 21.4007 162.565 21.3096 163.194 21.3096C163.86 21.3096 164.425 21.4121 164.89 21.6172C165.354 21.8177 165.708 22.1094 165.949 22.4922C166.195 22.8704 166.318 23.3262 166.318 23.8594V29H164.35V28.002H164.226C164.099 28.2344 163.928 28.4349 163.714 28.6035C163.504 28.7676 163.258 28.8952 162.976 28.9863C162.698 29.0729 162.394 29.1162 162.066 29.1162ZM167.933 29V21.4736H169.929V22.6357H170.052C170.226 22.2256 170.495 21.902 170.859 21.665C171.224 21.4281 171.675 21.3096 172.213 21.3096C173.051 21.3096 173.689 21.5557 174.127 22.0479C174.569 22.5355 174.79 23.2305 174.79 24.1328V29H172.794V24.584C172.794 24.0508 172.682 23.6475 172.459 23.374C172.235 23.1006 171.887 22.9639 171.413 22.9639C171.108 22.9639 170.843 23.0345 170.62 23.1758C170.401 23.3125 170.23 23.5062 170.107 23.7568C169.989 24.0075 169.929 24.3037 169.929 24.6455V29H167.933ZM179.707 31.6455C179.009 31.6455 178.412 31.5544 177.916 31.3721C177.423 31.1943 177.036 30.9414 176.754 30.6133C176.471 30.2897 176.302 29.916 176.248 29.4922V29.458H178.223L178.23 29.4854C178.285 29.7041 178.44 29.8818 178.695 30.0186C178.955 30.1553 179.306 30.2236 179.748 30.2236C180.281 30.2236 180.696 30.1029 180.992 29.8613C181.288 29.6243 181.436 29.2871 181.436 28.8496V27.4482H181.313C181.176 27.7126 180.996 27.9359 180.773 28.1182C180.554 28.3005 180.299 28.4395 180.007 28.5352C179.72 28.6263 179.404 28.6719 179.057 28.6719C178.428 28.6719 177.884 28.5215 177.423 28.2207C176.968 27.9154 176.615 27.4915 176.364 26.9492C176.118 26.4069 175.995 25.7803 175.995 25.0693V25.0557C175.995 24.3174 176.118 23.6702 176.364 23.1143C176.615 22.5583 176.97 22.1253 177.43 21.8154C177.895 21.5055 178.449 21.3506 179.091 21.3506C179.438 21.3506 179.754 21.4053 180.042 21.5146C180.333 21.624 180.588 21.779 180.807 21.9795C181.026 22.18 181.201 22.4215 181.334 22.7041H181.429V21.4736H183.425V28.7676C183.425 29.3555 183.273 29.8636 182.967 30.292C182.667 30.7249 182.238 31.0576 181.682 31.29C181.126 31.527 180.468 31.6455 179.707 31.6455ZM179.734 27.1406C180.094 27.1406 180.402 27.054 180.657 26.8809C180.912 26.7031 181.108 26.4593 181.245 26.1494C181.386 25.8395 181.457 25.4772 181.457 25.0625V25.0488C181.457 24.6387 181.386 24.2764 181.245 23.9619C181.108 23.6475 180.912 23.4036 180.657 23.2305C180.402 23.0573 180.094 22.9707 179.734 22.9707C179.374 22.9707 179.069 23.0573 178.818 23.2305C178.567 23.4036 178.374 23.6475 178.237 23.9619C178.105 24.2718 178.039 24.6341 178.039 25.0488V25.0625C178.039 25.4727 178.105 25.835 178.237 26.1494C178.374 26.4593 178.567 26.7031 178.818 26.8809C179.069 27.054 179.374 27.1406 179.734 27.1406ZM185.095 29V21.4736H187.091V29H185.095ZM186.1 20.3184C185.795 20.3184 185.53 20.2113 185.307 19.9971C185.084 19.7783 184.972 19.5163 184.972 19.2109C184.972 18.901 185.084 18.639 185.307 18.4248C185.53 18.2061 185.795 18.0967 186.1 18.0967C186.41 18.0967 186.674 18.2061 186.893 18.4248C187.112 18.639 187.221 18.901 187.221 19.2109C187.221 19.5163 187.112 19.7783 186.893 19.9971C186.674 20.2113 186.41 20.3184 186.1 20.3184ZM188.761 29V21.4736H190.757V22.6357H190.88C191.053 22.2256 191.322 21.902 191.687 21.665C192.051 21.4281 192.503 21.3096 193.04 21.3096C193.879 21.3096 194.517 21.5557 194.954 22.0479C195.396 22.5355 195.617 23.2305 195.617 24.1328V29H193.621V24.584C193.621 24.0508 193.51 23.6475 193.286 23.374C193.063 23.1006 192.714 22.9639 192.241 22.9639C191.935 22.9639 191.671 23.0345 191.448 23.1758C191.229 23.3125 191.058 23.5062 190.935 23.7568C190.816 24.0075 190.757 24.3037 190.757 24.6455V29H188.761ZM200.534 31.6455C199.837 31.6455 199.24 31.5544 198.743 31.3721C198.251 31.1943 197.864 30.9414 197.581 30.6133C197.299 30.2897 197.13 29.916 197.075 29.4922V29.458H199.051L199.058 29.4854C199.112 29.7041 199.267 29.8818 199.523 30.0186C199.782 30.1553 200.133 30.2236 200.575 30.2236C201.109 30.2236 201.523 30.1029 201.819 29.8613C202.116 29.6243 202.264 29.2871 202.264 28.8496V27.4482H202.141C202.004 27.7126 201.824 27.9359 201.601 28.1182C201.382 28.3005 201.127 28.4395 200.835 28.5352C200.548 28.6263 200.231 28.6719 199.885 28.6719C199.256 28.6719 198.711 28.5215 198.251 28.2207C197.795 27.9154 197.442 27.4915 197.192 26.9492C196.945 26.4069 196.822 25.7803 196.822 25.0693V25.0557C196.822 24.3174 196.945 23.6702 197.192 23.1143C197.442 22.5583 197.798 22.1253 198.258 21.8154C198.723 21.5055 199.276 21.3506 199.919 21.3506C200.265 21.3506 200.582 21.4053 200.869 21.5146C201.161 21.624 201.416 21.779 201.635 21.9795C201.854 22.18 202.029 22.4215 202.161 22.7041H202.257V21.4736H204.253V28.7676C204.253 29.3555 204.1 29.8636 203.795 30.292C203.494 30.7249 203.066 31.0576 202.51 31.29C201.954 31.527 201.295 31.6455 200.534 31.6455ZM200.562 27.1406C200.922 27.1406 201.229 27.054 201.484 26.8809C201.74 26.7031 201.936 26.4593 202.072 26.1494C202.214 25.8395 202.284 25.4772 202.284 25.0625V25.0488C202.284 24.6387 202.214 24.2764 202.072 23.9619C201.936 23.6475 201.74 23.4036 201.484 23.2305C201.229 23.0573 200.922 22.9707 200.562 22.9707C200.202 22.9707 199.896 23.0573 199.646 23.2305C199.395 23.4036 199.201 23.6475 199.065 23.9619C198.932 24.2718 198.866 24.6341 198.866 25.0488V25.0625C198.866 25.4727 198.932 25.835 199.065 26.1494C199.201 26.4593 199.395 26.7031 199.646 26.8809C199.896 27.054 200.202 27.1406 200.562 27.1406ZM212.521 29.1572C211.751 29.1572 211.088 29.0023 210.532 28.6924C209.976 28.3779 209.55 27.929 209.254 27.3457C208.957 26.7578 208.809 26.056 208.809 25.2402V25.2266C208.809 24.4154 208.96 23.7181 209.261 23.1348C209.561 22.5514 209.987 22.1025 210.539 21.7881C211.095 21.4691 211.756 21.3096 212.521 21.3096C213.287 21.3096 213.945 21.4668 214.497 21.7812C215.053 22.0957 215.481 22.5469 215.782 23.1348C216.083 23.7181 216.233 24.4154 216.233 25.2266V25.2402C216.233 26.056 216.085 26.7578 215.789 27.3457C215.493 27.929 215.067 28.3779 214.511 28.6924C213.959 29.0023 213.296 29.1572 212.521 29.1572ZM212.521 27.5918C212.877 27.5918 213.178 27.4984 213.424 27.3115C213.67 27.1247 213.859 26.8558 213.991 26.5049C214.123 26.154 214.189 25.7324 214.189 25.2402V25.2266C214.189 24.7344 214.123 24.3151 213.991 23.9688C213.859 23.6178 213.667 23.349 213.417 23.1621C213.171 22.9707 212.872 22.875 212.521 22.875C212.17 22.875 211.87 22.9707 211.619 23.1621C211.373 23.349 211.184 23.6178 211.052 23.9688C210.919 24.3151 210.853 24.7344 210.853 25.2266V25.2402C210.853 25.737 210.917 26.1608 211.045 26.5117C211.177 26.8626 211.366 27.1315 211.612 27.3184C211.863 27.5007 212.166 27.5918 212.521 27.5918ZM220.008 29.1572C219.448 29.1572 218.976 29.0479 218.593 28.8291C218.215 28.6104 217.93 28.2913 217.739 27.8721C217.548 27.4482 217.452 26.9378 217.452 26.3408V21.4736H219.448V25.8828C219.448 26.416 219.553 26.8193 219.762 27.0928C219.977 27.3662 220.321 27.5029 220.795 27.5029C221.041 27.5029 221.257 27.4642 221.444 27.3867C221.635 27.3047 221.795 27.1908 221.923 27.0449C222.05 26.8991 222.146 26.7236 222.21 26.5186C222.278 26.3089 222.312 26.0765 222.312 25.8213V21.4736H224.308V29H222.312V27.8379H222.189C222.075 28.1113 221.916 28.3483 221.711 28.5488C221.506 28.7448 221.259 28.8952 220.972 29C220.685 29.1048 220.364 29.1572 220.008 29.1572ZM229.095 29.0273C228.184 29.0273 227.527 28.8678 227.126 28.5488C226.725 28.2253 226.525 27.6989 226.525 26.9697V22.9775H225.363V21.4736H226.525V19.6758H228.541V21.4736H230.093V22.9775H228.541V26.5117C228.541 26.849 228.617 27.0973 228.767 27.2568C228.922 27.4118 229.168 27.4893 229.505 27.4893C229.633 27.4893 229.738 27.487 229.82 27.4824C229.906 27.4733 229.998 27.4642 230.093 27.4551V28.9385C229.97 28.9613 229.822 28.9818 229.649 29C229.476 29.0182 229.291 29.0273 229.095 29.0273ZM236.112 29L234.103 21.4736H236.119L237.24 26.9219H237.363L238.683 21.4736H240.583L241.909 26.9219H242.032L243.153 21.4736H245.129L243.126 29H241.007L239.66 23.75H239.537L238.204 29H236.112ZM246.225 29V21.4736H248.221V29H246.225ZM247.229 20.3184C246.924 20.3184 246.66 20.2113 246.437 19.9971C246.213 19.7783 246.102 19.5163 246.102 19.2109C246.102 18.901 246.213 18.639 246.437 18.4248C246.66 18.2061 246.924 18.0967 247.229 18.0967C247.539 18.0967 247.804 18.2061 248.022 18.4248C248.241 18.639 248.351 18.901 248.351 19.2109C248.351 19.5163 248.241 19.7783 248.022 19.9971C247.804 20.2113 247.539 20.3184 247.229 20.3184ZM253.014 29.0273C252.103 29.0273 251.447 28.8678 251.046 28.5488C250.645 28.2253 250.444 27.6989 250.444 26.9697V22.9775H249.282V21.4736H250.444V19.6758H252.461V21.4736H254.013V22.9775H252.461V26.5117C252.461 26.849 252.536 27.0973 252.686 27.2568C252.841 27.4118 253.087 27.4893 253.425 27.4893C253.552 27.4893 253.657 27.487 253.739 27.4824C253.826 27.4733 253.917 27.4642 254.013 27.4551V28.9385C253.889 28.9613 253.741 28.9818 253.568 29C253.395 29.0182 253.21 29.0273 253.014 29.0273ZM255.402 29V18.5957H257.398V22.6357H257.521C257.694 22.2256 257.963 21.902 258.328 21.665C258.692 21.4281 259.144 21.3096 259.681 21.3096C260.242 21.3096 260.711 21.4212 261.09 21.6445C261.472 21.8633 261.762 22.1823 261.958 22.6016C262.158 23.0208 262.258 23.5312 262.258 24.1328V29H260.262V24.584C260.262 24.0508 260.151 23.6475 259.927 23.374C259.704 23.1006 259.355 22.9639 258.882 22.9639C258.576 22.9639 258.312 23.0345 258.089 23.1758C257.87 23.3125 257.699 23.5062 257.576 23.7568C257.457 24.0075 257.398 24.3037 257.398 24.6455V29H255.402ZM267.196 29.1572C266.426 29.1572 265.763 29.0023 265.207 28.6924C264.651 28.3779 264.224 27.929 263.928 27.3457C263.632 26.7578 263.484 26.056 263.484 25.2402V25.2266C263.484 24.4154 263.634 23.7181 263.935 23.1348C264.236 22.5514 264.662 22.1025 265.213 21.7881C265.769 21.4691 266.43 21.3096 267.196 21.3096C267.961 21.3096 268.62 21.4668 269.171 21.7812C269.727 22.0957 270.156 22.5469 270.457 23.1348C270.757 23.7181 270.908 24.4154 270.908 25.2266V25.2402C270.908 26.056 270.76 26.7578 270.463 27.3457C270.167 27.929 269.741 28.3779 269.185 28.6924C268.634 29.0023 267.971 29.1572 267.196 29.1572ZM267.196 27.5918C267.551 27.5918 267.852 27.4984 268.098 27.3115C268.344 27.1247 268.533 26.8558 268.666 26.5049C268.798 26.154 268.864 25.7324 268.864 25.2402V25.2266C268.864 24.7344 268.798 24.3151 268.666 23.9688C268.533 23.6178 268.342 23.349 268.091 23.1621C267.845 22.9707 267.547 22.875 267.196 22.875C266.845 22.875 266.544 22.9707 266.293 23.1621C266.047 23.349 265.858 23.6178 265.726 23.9688C265.594 24.3151 265.528 24.7344 265.528 25.2266V25.2402C265.528 25.737 265.592 26.1608 265.719 26.5117C265.851 26.8626 266.041 27.1315 266.287 27.3184C266.537 27.5007 266.84 27.5918 267.196 27.5918ZM274.683 29.1572C274.122 29.1572 273.651 29.0479 273.268 28.8291C272.89 28.6104 272.605 28.2913 272.413 27.8721C272.222 27.4482 272.126 26.9378 272.126 26.3408V21.4736H274.122V25.8828C274.122 26.416 274.227 26.8193 274.437 27.0928C274.651 27.3662 274.995 27.5029 275.469 27.5029C275.715 27.5029 275.932 27.4642 276.119 27.3867C276.31 27.3047 276.469 27.1908 276.597 27.0449C276.725 26.8991 276.82 26.7236 276.884 26.5186C276.952 26.3089 276.987 26.0765 276.987 25.8213V21.4736H278.983V29H276.987V27.8379H276.864C276.75 28.1113 276.59 28.3483 276.385 28.5488C276.18 28.7448 275.934 28.8952 275.647 29C275.36 29.1048 275.038 29.1572 274.683 29.1572ZM283.77 29.0273C282.858 29.0273 282.202 28.8678 281.801 28.5488C281.4 28.2253 281.199 27.6989 281.199 26.9697V22.9775H280.037V21.4736H281.199V19.6758H283.216V21.4736H284.768V22.9775H283.216V26.5117C283.216 26.849 283.291 27.0973 283.442 27.2568C283.597 27.4118 283.843 27.4893 284.18 27.4893C284.307 27.4893 284.412 27.487 284.494 27.4824C284.581 27.4733 284.672 27.4642 284.768 27.4551V28.9385C284.645 28.9613 284.497 28.9818 284.323 29C284.15 29.0182 283.966 29.0273 283.77 29.0273ZM290.254 31.6523C290.14 31.6523 290.021 31.6501 289.898 31.6455C289.775 31.641 289.655 31.6364 289.536 31.6318V30.1279C289.604 30.137 289.684 30.1416 289.775 30.1416C289.871 30.1462 289.964 30.1484 290.056 30.1484C290.411 30.1484 290.694 30.0778 290.903 29.9365C291.113 29.7952 291.252 29.5788 291.32 29.2871L291.389 29L288.743 21.4736H290.937L292.735 27.9678L292.277 27.1748H292.872L292.434 27.9678L294.232 21.4736H296.338L293.774 28.9932C293.556 29.654 293.289 30.1781 292.974 30.5654C292.665 30.9574 292.289 31.2354 291.847 31.3994C291.405 31.568 290.874 31.6523 290.254 31.6523ZM300.414 29.1572C299.644 29.1572 298.981 29.0023 298.425 28.6924C297.869 28.3779 297.442 27.929 297.146 27.3457C296.85 26.7578 296.702 26.056 296.702 25.2402V25.2266C296.702 24.4154 296.852 23.7181 297.153 23.1348C297.454 22.5514 297.88 22.1025 298.431 21.7881C298.987 21.4691 299.648 21.3096 300.414 21.3096C301.179 21.3096 301.838 21.4668 302.389 21.7812C302.945 22.0957 303.374 22.5469 303.675 23.1348C303.975 23.7181 304.126 24.4154 304.126 25.2266V25.2402C304.126 26.056 303.978 26.7578 303.681 27.3457C303.385 27.929 302.959 28.3779 302.403 28.6924C301.852 29.0023 301.189 29.1572 300.414 29.1572ZM300.414 27.5918C300.769 27.5918 301.07 27.4984 301.316 27.3115C301.562 27.1247 301.751 26.8558 301.884 26.5049C302.016 26.154 302.082 25.7324 302.082 25.2402V25.2266C302.082 24.7344 302.016 24.3151 301.884 23.9688C301.751 23.6178 301.56 23.349 301.309 23.1621C301.063 22.9707 300.765 22.875 300.414 22.875C300.063 22.875 299.762 22.9707 299.511 23.1621C299.265 23.349 299.076 23.6178 298.944 23.9688C298.812 24.3151 298.746 24.7344 298.746 25.2266V25.2402C298.746 25.737 298.81 26.1608 298.937 26.5117C299.069 26.8626 299.259 27.1315 299.505 27.3184C299.755 27.5007 300.058 27.5918 300.414 27.5918ZM307.901 29.1572C307.34 29.1572 306.869 29.0479 306.486 28.8291C306.108 28.6104 305.823 28.2913 305.631 27.8721C305.44 27.4482 305.344 26.9378 305.344 26.3408V21.4736H307.34V25.8828C307.34 26.416 307.445 26.8193 307.655 27.0928C307.869 27.3662 308.213 27.5029 308.687 27.5029C308.933 27.5029 309.15 27.4642 309.336 27.3867C309.528 27.3047 309.687 27.1908 309.815 27.0449C309.943 26.8991 310.038 26.7236 310.102 26.5186C310.17 26.3089 310.205 26.0765 310.205 25.8213V21.4736H312.201V29H310.205V27.8379H310.082C309.968 28.1113 309.808 28.3483 309.603 28.5488C309.398 28.7448 309.152 28.8952 308.865 29C308.578 29.1048 308.256 29.1572 307.901 29.1572Z" fill="white"/>
<path d="M74.8301 46L72.5273 37.5449H73.6289L75.3105 44.418H75.3809L77.2734 37.5449H78.3398L80.2324 44.418H80.3027L81.9844 37.5449H83.0859L80.7832 46H79.7871L77.8418 39.3262H77.7715L75.8262 46H74.8301ZM84.2811 46V37.1758H85.3006V40.6328H85.3944C85.5545 40.2969 85.785 40.0371 86.0858 39.8535C86.3866 39.666 86.7694 39.5723 87.2342 39.5723C87.7069 39.5723 88.1073 39.6641 88.4354 39.8477C88.7635 40.0273 89.0135 40.291 89.1854 40.6387C89.3573 40.9863 89.4432 41.4102 89.4432 41.9102V46H88.4237V42.1562C88.4237 41.5859 88.3026 41.1641 88.0604 40.8906C87.8221 40.6133 87.451 40.4746 86.9471 40.4746C86.6112 40.4746 86.3202 40.5469 86.0741 40.6914C85.828 40.8359 85.6366 41.041 85.4998 41.3066C85.367 41.5723 85.3006 41.8906 85.3006 42.2617V46H84.2811ZM92.6833 46.1113C92.2848 46.1113 91.9255 46.0352 91.6052 45.8828C91.2887 45.7305 91.0368 45.5137 90.8493 45.2324C90.6657 44.9512 90.5739 44.6191 90.5739 44.2363V44.2246C90.5739 43.8496 90.6637 43.5293 90.8434 43.2637C91.0231 42.9941 91.2848 42.7832 91.6286 42.6309C91.9723 42.4785 92.3884 42.3887 92.8766 42.3613L95.197 42.2207V43.0352L92.9997 43.1758C92.5192 43.2031 92.1677 43.3027 91.945 43.4746C91.7262 43.6465 91.6169 43.8887 91.6169 44.2012V44.2129C91.6169 44.5332 91.738 44.7832 91.9802 44.9629C92.2223 45.1387 92.527 45.2266 92.8942 45.2266C93.2419 45.2266 93.5505 45.1582 93.82 45.0215C94.0895 44.8809 94.3005 44.6914 94.4528 44.4531C94.6091 44.2148 94.6872 43.9453 94.6872 43.6445V41.6758C94.6872 41.2852 94.568 40.9883 94.3298 40.7852C94.0954 40.5781 93.7419 40.4746 93.2692 40.4746C92.8903 40.4746 92.5798 40.543 92.3376 40.6797C92.0954 40.8125 91.9333 41.002 91.8512 41.248L91.8454 41.2656H90.8259L90.8317 41.2305C90.8864 40.8984 91.0231 40.6094 91.2419 40.3633C91.4645 40.1133 91.7516 39.9199 92.1032 39.7832C92.4548 39.6426 92.8552 39.5723 93.3044 39.5723C93.82 39.5723 94.2555 39.6562 94.611 39.8242C94.9704 39.9922 95.2419 40.2344 95.4255 40.5508C95.613 40.8633 95.7067 41.2383 95.7067 41.6758V46H94.6872V45.0684H94.5934C94.4606 45.291 94.2985 45.4805 94.1071 45.6367C93.9196 45.793 93.7067 45.9121 93.4684 45.9941C93.2302 46.0723 92.9684 46.1113 92.6833 46.1113ZM99.4741 46.0469C98.8257 46.0469 98.355 45.916 98.062 45.6543C97.773 45.3926 97.6284 44.9609 97.6284 44.3594V40.5273H96.6323V39.6836H97.6284V38.0488H98.6831V39.6836H100.066V40.5273H98.6831V44.1016C98.6831 44.4727 98.7534 44.7402 98.8941 44.9043C99.0347 45.0645 99.2691 45.1445 99.5972 45.1445C99.687 45.1445 99.7632 45.1426 99.8257 45.1387C99.8921 45.1348 99.9722 45.1289 100.066 45.1211V45.9883C99.9683 46.0039 99.8706 46.0176 99.773 46.0293C99.6753 46.041 99.5757 46.0469 99.4741 46.0469ZM106.019 46.1113C105.62 46.1113 105.261 46.0352 104.941 45.8828C104.624 45.7305 104.372 45.5137 104.185 45.2324C104.001 44.9512 103.909 44.6191 103.909 44.2363V44.2246C103.909 43.8496 103.999 43.5293 104.179 43.2637C104.359 42.9941 104.62 42.7832 104.964 42.6309C105.308 42.4785 105.724 42.3887 106.212 42.3613L108.532 42.2207V43.0352L106.335 43.1758C105.855 43.2031 105.503 43.3027 105.28 43.4746C105.062 43.6465 104.952 43.8887 104.952 44.2012V44.2129C104.952 44.5332 105.073 44.7832 105.316 44.9629C105.558 45.1387 105.862 45.2266 106.23 45.2266C106.577 45.2266 106.886 45.1582 107.155 45.0215C107.425 44.8809 107.636 44.6914 107.788 44.4531C107.945 44.2148 108.023 43.9453 108.023 43.6445V41.6758C108.023 41.2852 107.904 40.9883 107.665 40.7852C107.431 40.5781 107.077 40.4746 106.605 40.4746C106.226 40.4746 105.915 40.543 105.673 40.6797C105.431 40.8125 105.269 41.002 105.187 41.248L105.181 41.2656H104.161L104.167 41.2305C104.222 40.8984 104.359 40.6094 104.577 40.3633C104.8 40.1133 105.087 39.9199 105.439 39.7832C105.79 39.6426 106.191 39.5723 106.64 39.5723C107.155 39.5723 107.591 39.6562 107.946 39.8242C108.306 39.9922 108.577 40.2344 108.761 40.5508C108.948 40.8633 109.042 41.2383 109.042 41.6758V46H108.023V45.0684H107.929C107.796 45.291 107.634 45.4805 107.443 45.6367C107.255 45.793 107.042 45.9121 106.804 45.9941C106.566 46.0723 106.304 46.1113 106.019 46.1113ZM110.565 46V39.6836H111.585V40.6211H111.679C111.8 40.2891 112.005 40.0312 112.294 39.8477C112.583 39.6641 112.94 39.5723 113.366 39.5723C113.464 39.5723 113.56 39.5781 113.653 39.5898C113.751 39.5977 113.825 39.6055 113.876 39.6133V40.6035C113.771 40.584 113.667 40.5703 113.565 40.5625C113.468 40.5508 113.362 40.5449 113.249 40.5449C112.925 40.5449 112.638 40.6094 112.388 40.7383C112.138 40.8672 111.94 41.0469 111.796 41.2773C111.655 41.5078 111.585 41.7773 111.585 42.0859V46H110.565ZM117.198 46.1113C116.597 46.1113 116.079 45.9785 115.645 45.7129C115.216 45.4473 114.884 45.0723 114.649 44.5879C114.419 44.0996 114.304 43.5254 114.304 42.8652V42.8594C114.304 42.207 114.419 41.6348 114.649 41.1426C114.884 40.6504 115.214 40.2656 115.64 39.9883C116.065 39.7109 116.563 39.5723 117.134 39.5723C117.708 39.5723 118.2 39.7051 118.61 39.9707C119.024 40.2363 119.341 40.6074 119.559 41.084C119.782 41.5566 119.893 42.1074 119.893 42.7363V43.1348H114.831V42.3203H119.372L118.868 43.0645V42.6602C118.868 42.1641 118.794 41.7559 118.645 41.4355C118.497 41.1152 118.292 40.877 118.03 40.7207C117.768 40.5605 117.468 40.4805 117.128 40.4805C116.788 40.4805 116.483 40.5645 116.214 40.7324C115.948 40.8965 115.737 41.1406 115.581 41.4648C115.425 41.7891 115.347 42.1875 115.347 42.6602V43.0645C115.347 43.5137 115.423 43.8984 115.575 44.2188C115.727 44.5352 115.944 44.7793 116.225 44.9512C116.507 45.1191 116.839 45.2031 117.222 45.2031C117.507 45.2031 117.755 45.1641 117.966 45.0859C118.177 45.0078 118.35 44.9082 118.487 44.7871C118.624 44.666 118.72 44.543 118.774 44.418L118.798 44.3652H119.817L119.806 44.4121C119.751 44.627 119.653 44.8359 119.513 45.0391C119.376 45.2383 119.198 45.4199 118.979 45.584C118.761 45.7441 118.501 45.873 118.2 45.9707C117.903 46.0645 117.569 46.1113 117.198 46.1113ZM124.299 46V37.5449H125.524L128.419 44.5996H128.512L131.407 37.5449H132.631V46H131.647V39.543H131.131L132.315 37.7793L128.911 46H128.02L124.622 37.7793L125.799 39.543H125.284V46H124.299ZM134.342 46V39.6836H135.362V46H134.342ZM134.858 38.4648C134.666 38.4648 134.5 38.3965 134.36 38.2598C134.223 38.1191 134.155 37.9531 134.155 37.7617C134.155 37.5664 134.223 37.4004 134.36 37.2637C134.5 37.127 134.666 37.0586 134.858 37.0586C135.053 37.0586 135.219 37.127 135.356 37.2637C135.493 37.4004 135.561 37.5664 135.561 37.7617C135.561 37.9531 135.493 38.1191 135.356 38.2598C135.219 38.3965 135.053 38.4648 134.858 38.4648ZM137.002 46V37.1758H138.022V46H137.002ZM140.981 46L138.514 42.9062L139.264 42.2559L142.264 46H140.981ZM137.893 43.7266L137.846 42.4434H138.115L140.846 39.6836H142.082L139.082 42.5781L138.836 42.8184L137.893 43.7266ZM145.404 46.1113C144.803 46.1113 144.285 45.9785 143.852 45.7129C143.422 45.4473 143.09 45.0723 142.856 44.5879C142.625 44.0996 142.51 43.5254 142.51 42.8652V42.8594C142.51 42.207 142.625 41.6348 142.856 41.1426C143.09 40.6504 143.42 40.2656 143.846 39.9883C144.272 39.7109 144.77 39.5723 145.34 39.5723C145.914 39.5723 146.406 39.7051 146.816 39.9707C147.231 40.2363 147.547 40.6074 147.766 41.084C147.988 41.5566 148.1 42.1074 148.1 42.7363V43.1348H143.037V42.3203H147.578L147.074 43.0645V42.6602C147.074 42.1641 147 41.7559 146.852 41.4355C146.703 41.1152 146.498 40.877 146.236 40.7207C145.975 40.5605 145.674 40.4805 145.334 40.4805C144.994 40.4805 144.69 40.5645 144.42 40.7324C144.154 40.8965 143.943 41.1406 143.787 41.4648C143.631 41.7891 143.553 42.1875 143.553 42.6602V43.0645C143.553 43.5137 143.629 43.8984 143.781 44.2188C143.934 44.5352 144.15 44.7793 144.432 44.9512C144.713 45.1191 145.045 45.2031 145.428 45.2031C145.713 45.2031 145.961 45.1641 146.172 45.0859C146.383 45.0078 146.557 44.9082 146.693 44.7871C146.83 44.666 146.926 44.543 146.981 44.418L147.004 44.3652H148.024L148.012 44.4121C147.957 44.627 147.859 44.8359 147.719 45.0391C147.582 45.2383 147.404 45.4199 147.186 45.584C146.967 45.7441 146.707 45.873 146.406 45.9707C146.109 46.0645 145.775 46.1113 145.404 46.1113ZM149.084 48.1504L149.594 44.8164H150.76L149.84 48.1504H149.084ZM155.728 46V37.5449H156.783V45.0508H160.861V46H155.728ZM162.103 46V39.6836H163.122V46H162.103ZM162.619 38.4648C162.427 38.4648 162.261 38.3965 162.121 38.2598C161.984 38.1191 161.915 37.9531 161.915 37.7617C161.915 37.5664 161.984 37.4004 162.121 37.2637C162.261 37.127 162.427 37.0586 162.619 37.0586C162.814 37.0586 162.98 37.127 163.117 37.2637C163.253 37.4004 163.322 37.5664 163.322 37.7617C163.322 37.9531 163.253 38.1191 163.117 38.2598C162.98 38.3965 162.814 38.4648 162.619 38.4648ZM166.949 46.0469C166.3 46.0469 165.829 45.916 165.536 45.6543C165.247 45.3926 165.103 44.9609 165.103 44.3594V40.5273H164.107V39.6836H165.103V38.0488H166.158V39.6836H167.54V40.5273H166.158V44.1016C166.158 44.4727 166.228 44.7402 166.368 44.9043C166.509 45.0645 166.743 45.1445 167.072 45.1445C167.161 45.1445 167.238 45.1426 167.3 45.1387C167.366 45.1348 167.447 45.1289 167.54 45.1211V45.9883C167.443 46.0039 167.345 46.0176 167.247 46.0293C167.15 46.041 167.05 46.0469 166.949 46.0469ZM171.237 46.1113C170.64 46.1113 170.122 45.9805 169.685 45.7188C169.251 45.4531 168.915 45.0762 168.677 44.5879C168.442 44.0996 168.325 43.5195 168.325 42.8477V42.8359C168.325 42.1602 168.442 41.5781 168.677 41.0898C168.915 40.6016 169.251 40.2266 169.685 39.9648C170.122 39.7031 170.64 39.5723 171.237 39.5723C171.839 39.5723 172.357 39.7031 172.79 39.9648C173.224 40.2266 173.558 40.6016 173.792 41.0898C174.03 41.5781 174.15 42.1602 174.15 42.8359V42.8477C174.15 43.5195 174.03 44.0996 173.792 44.5879C173.558 45.0762 173.224 45.4531 172.79 45.7188C172.357 45.9805 171.839 46.1113 171.237 46.1113ZM171.237 45.209C171.636 45.209 171.974 45.1152 172.251 44.9277C172.528 44.7402 172.739 44.4707 172.884 44.1191C173.032 43.7676 173.107 43.3438 173.107 42.8477V42.8359C173.107 42.3359 173.032 41.9102 172.884 41.5586C172.739 41.207 172.528 40.9395 172.251 40.7559C171.974 40.5684 171.636 40.4746 171.237 40.4746C170.839 40.4746 170.501 40.5684 170.224 40.7559C169.946 40.9395 169.734 41.207 169.585 41.5586C169.441 41.9102 169.368 42.3359 169.368 42.8359V42.8477C169.368 43.3438 169.441 43.7676 169.585 44.1191C169.734 44.4707 169.946 44.7402 170.224 44.9277C170.501 45.1152 170.839 45.209 171.237 45.209ZM175.392 46V39.6836H176.411V40.6211H176.505C176.626 40.2891 176.831 40.0312 177.12 39.8477C177.409 39.6641 177.767 39.5723 178.192 39.5723C178.29 39.5723 178.386 39.5781 178.479 39.5898C178.577 39.5977 178.651 39.6055 178.702 39.6133V40.6035C178.597 40.584 178.493 40.5703 178.392 40.5625C178.294 40.5508 178.188 40.5449 178.075 40.5449C177.751 40.5449 177.464 40.6094 177.214 40.7383C176.964 40.8672 176.767 41.0469 176.622 41.2773C176.481 41.5078 176.411 41.7773 176.411 42.0859V46H175.392ZM182.042 46.1113C181.444 46.1113 180.927 45.9805 180.489 45.7188C180.055 45.4531 179.72 45.0762 179.481 44.5879C179.247 44.0996 179.13 43.5195 179.13 42.8477V42.8359C179.13 42.1602 179.247 41.5781 179.481 41.0898C179.72 40.6016 180.055 40.2266 180.489 39.9648C180.927 39.7031 181.444 39.5723 182.042 39.5723C182.643 39.5723 183.161 39.7031 183.595 39.9648C184.028 40.2266 184.362 40.6016 184.596 41.0898C184.835 41.5781 184.954 42.1602 184.954 42.8359V42.8477C184.954 43.5195 184.835 44.0996 184.596 44.5879C184.362 45.0762 184.028 45.4531 183.595 45.7188C183.161 45.9805 182.643 46.1113 182.042 46.1113ZM182.042 45.209C182.44 45.209 182.778 45.1152 183.055 44.9277C183.333 44.7402 183.544 44.4707 183.688 44.1191C183.837 43.7676 183.911 43.3438 183.911 42.8477V42.8359C183.911 42.3359 183.837 41.9102 183.688 41.5586C183.544 41.207 183.333 40.9395 183.055 40.7559C182.778 40.5684 182.44 40.4746 182.042 40.4746C181.643 40.4746 181.305 40.5684 181.028 40.7559C180.751 40.9395 180.538 41.207 180.389 41.5586C180.245 41.9102 180.173 42.3359 180.173 42.8359V42.8477C180.173 43.3438 180.245 43.7676 180.389 44.1191C180.538 44.4707 180.751 44.7402 181.028 44.9277C181.305 45.1152 181.643 45.209 182.042 45.209ZM188.311 46.1113C187.835 46.1113 187.434 46.0215 187.11 45.8418C186.786 45.6582 186.542 45.3926 186.378 45.0449C186.217 44.6934 186.137 44.2695 186.137 43.7734V39.6836H187.157V43.5273C187.157 44.0938 187.266 44.5156 187.485 44.793C187.708 45.0703 188.071 45.209 188.575 45.209C188.852 45.209 189.096 45.168 189.307 45.0859C189.522 45.0039 189.702 44.8867 189.846 44.7344C189.991 44.5781 190.098 44.3906 190.169 44.1719C190.243 43.9492 190.28 43.6992 190.28 43.4219V39.6836H191.299V46H190.28V45.0566H190.186C190.085 45.2793 189.946 45.4707 189.77 45.6309C189.594 45.7871 189.383 45.9062 189.137 45.9883C188.895 46.0703 188.62 46.1113 188.311 46.1113ZM195.032 46.1113C194.563 46.1113 194.149 46.041 193.79 45.9004C193.43 45.7559 193.141 45.5547 192.922 45.2969C192.707 45.0391 192.581 44.7363 192.541 44.3887H193.584C193.67 44.6504 193.838 44.8613 194.088 45.0215C194.338 45.1816 194.665 45.2617 195.067 45.2617C195.352 45.2617 195.602 45.2207 195.817 45.1387C196.036 45.0527 196.207 44.9375 196.332 44.793C196.457 44.6445 196.52 44.4746 196.52 44.2832V44.2715C196.52 44.0566 196.434 43.875 196.262 43.7266C196.09 43.5742 195.809 43.4512 195.418 43.3574L194.44 43.123C194.045 43.0293 193.721 42.9082 193.467 42.7598C193.213 42.6074 193.026 42.4219 192.905 42.2031C192.784 41.9805 192.723 41.7188 192.723 41.418V41.4121C192.723 41.0605 192.825 40.7461 193.028 40.4688C193.235 40.1914 193.516 39.9727 193.872 39.8125C194.227 39.6523 194.627 39.5723 195.073 39.5723C195.514 39.5723 195.905 39.6426 196.245 39.7832C196.588 39.9199 196.864 40.1152 197.071 40.3691C197.282 40.623 197.411 40.9219 197.457 41.2656H196.456C196.389 41.0156 196.237 40.8125 195.999 40.6562C195.76 40.5 195.45 40.4219 195.067 40.4219C194.817 40.4219 194.594 40.4629 194.399 40.5449C194.204 40.623 194.049 40.7324 193.936 40.873C193.823 41.0137 193.766 41.1777 193.766 41.3652V41.377C193.766 41.5176 193.803 41.6426 193.877 41.752C193.952 41.8613 194.067 41.957 194.223 42.0391C194.379 42.1211 194.581 42.1934 194.827 42.2559L195.799 42.4902C196.393 42.6348 196.834 42.8418 197.124 43.1113C197.416 43.3809 197.563 43.7422 197.563 44.1953V44.207C197.563 44.582 197.452 44.9141 197.229 45.2031C197.006 45.4883 196.704 45.7109 196.321 45.8711C195.942 46.0312 195.512 46.1113 195.032 46.1113ZM203.574 46.1113C203.176 46.1113 202.817 46.0352 202.496 45.8828C202.18 45.7305 201.928 45.5137 201.74 45.2324C201.557 44.9512 201.465 44.6191 201.465 44.2363V44.2246C201.465 43.8496 201.555 43.5293 201.735 43.2637C201.914 42.9941 202.176 42.7832 202.52 42.6309C202.863 42.4785 203.279 42.3887 203.768 42.3613L206.088 42.2207V43.0352L203.891 43.1758C203.41 43.2031 203.059 43.3027 202.836 43.4746C202.617 43.6465 202.508 43.8887 202.508 44.2012V44.2129C202.508 44.5332 202.629 44.7832 202.871 44.9629C203.113 45.1387 203.418 45.2266 203.785 45.2266C204.133 45.2266 204.442 45.1582 204.711 45.0215C204.981 44.8809 205.192 44.6914 205.344 44.4531C205.5 44.2148 205.578 43.9453 205.578 43.6445V41.6758C205.578 41.2852 205.459 40.9883 205.221 40.7852C204.986 40.5781 204.633 40.4746 204.16 40.4746C203.781 40.4746 203.471 40.543 203.229 40.6797C202.986 40.8125 202.824 41.002 202.742 41.248L202.736 41.2656H201.717L201.723 41.2305C201.777 40.8984 201.914 40.6094 202.133 40.3633C202.356 40.1133 202.643 39.9199 202.994 39.7832C203.346 39.6426 203.746 39.5723 204.195 39.5723C204.711 39.5723 205.147 39.6562 205.502 39.8242C205.861 39.9922 206.133 40.2344 206.317 40.5508C206.504 40.8633 206.598 41.2383 206.598 41.6758V46H205.578V45.0684H205.485C205.352 45.291 205.19 45.4805 204.998 45.6367C204.811 45.793 204.598 45.9121 204.36 45.9941C204.121 46.0723 203.86 46.1113 203.574 46.1113ZM208.121 46V39.6836H209.141V40.6328H209.234C209.395 40.2969 209.625 40.0371 209.926 39.8535C210.227 39.666 210.609 39.5723 211.074 39.5723C211.785 39.5723 212.33 39.7754 212.709 40.1816C213.092 40.584 213.283 41.1602 213.283 41.9102V46H212.264V42.1562C212.264 41.5859 212.143 41.1641 211.9 40.8906C211.662 40.6133 211.291 40.4746 210.787 40.4746C210.451 40.4746 210.16 40.5469 209.914 40.6914C209.668 40.8359 209.477 41.041 209.34 41.3066C209.207 41.5723 209.141 41.8906 209.141 42.2617V46H208.121ZM217.121 46.1113C216.59 46.1113 216.125 45.9766 215.726 45.707C215.328 45.4375 215.019 45.0586 214.801 44.5703C214.582 44.0781 214.473 43.5039 214.473 42.8477V42.8359C214.473 42.1758 214.582 41.6016 214.801 41.1133C215.019 40.625 215.326 40.2461 215.721 39.9766C216.119 39.707 216.586 39.5723 217.121 39.5723C217.41 39.5723 217.681 39.6191 217.935 39.7129C218.193 39.8027 218.422 39.9297 218.621 40.0938C218.82 40.2578 218.976 40.4531 219.09 40.6797H219.183V37.1758H220.203V46H219.183V44.9922H219.09C218.961 45.2266 218.799 45.4277 218.603 45.5957C218.408 45.7598 218.185 45.8867 217.935 45.9766C217.685 46.0664 217.414 46.1113 217.121 46.1113ZM217.355 45.209C217.738 45.209 218.068 45.1133 218.346 44.9219C218.623 44.7305 218.836 44.459 218.984 44.1074C219.133 43.752 219.207 43.332 219.207 42.8477V42.8359C219.207 42.3477 219.133 41.9277 218.984 41.5762C218.836 41.2246 218.623 40.9531 218.346 40.7617C218.068 40.5703 217.738 40.4746 217.355 40.4746C216.973 40.4746 216.642 40.5703 216.365 40.7617C216.092 40.9492 215.881 41.2188 215.732 41.5703C215.588 41.9219 215.515 42.3438 215.515 42.8359V42.8477C215.515 43.3359 215.588 43.7578 215.732 44.1133C215.881 44.4648 216.092 44.7363 216.365 44.9277C216.642 45.1152 216.973 45.209 217.355 45.209ZM224.984 46V37.5449H226.039V41.2012H230.679V37.5449H231.734V46H230.679V42.1504H226.039V46H224.984ZM235.536 46.1113C235.06 46.1113 234.66 46.0215 234.335 45.8418C234.011 45.6582 233.767 45.3926 233.603 45.0449C233.443 44.6934 233.363 44.2695 233.363 43.7734V39.6836H234.382V43.5273C234.382 44.0938 234.492 44.5156 234.71 44.793C234.933 45.0703 235.296 45.209 235.8 45.209C236.077 45.209 236.322 45.168 236.533 45.0859C236.747 45.0039 236.927 44.8867 237.072 44.7344C237.216 44.5781 237.324 44.3906 237.394 44.1719C237.468 43.9492 237.505 43.6992 237.505 43.4219V39.6836H238.525V46H237.505V45.0566H237.411C237.31 45.2793 237.171 45.4707 236.995 45.6309C236.82 45.7871 236.609 45.9062 236.363 45.9883C236.12 46.0703 235.845 46.1113 235.536 46.1113ZM242.691 48.2266C242.183 48.2266 241.739 48.1543 241.361 48.0098C240.982 47.8691 240.679 47.668 240.452 47.4062C240.23 47.1484 240.091 46.8477 240.036 46.5039L240.048 46.498H241.103L241.109 46.5039C241.163 46.7422 241.327 46.9375 241.601 47.0898C241.874 47.2461 242.238 47.3242 242.691 47.3242C243.257 47.3242 243.698 47.1953 244.015 46.9375C244.335 46.6836 244.495 46.3242 244.495 45.8594V44.582H244.402C244.269 44.8125 244.103 45.0098 243.904 45.1738C243.704 45.3379 243.48 45.4629 243.23 45.5488C242.98 45.6309 242.71 45.6719 242.421 45.6719C241.878 45.6719 241.407 45.543 241.009 45.2852C240.614 45.0234 240.31 44.6641 240.095 44.207C239.88 43.75 239.773 43.2266 239.773 42.6367V42.625C239.773 42.0352 239.88 41.5117 240.095 41.0547C240.314 40.5938 240.622 40.2324 241.021 39.9707C241.419 39.7051 241.894 39.5723 242.445 39.5723C242.741 39.5723 243.015 39.6191 243.265 39.7129C243.515 39.8066 243.736 39.9395 243.927 40.1113C244.122 40.2832 244.284 40.4883 244.413 40.7266H244.484V39.6836H245.503V45.9121C245.503 46.3809 245.388 46.7891 245.157 47.1367C244.931 47.4844 244.607 47.752 244.185 47.9395C243.763 48.1309 243.265 48.2266 242.691 48.2266ZM242.644 44.7695C243.034 44.7695 243.368 44.6797 243.646 44.5C243.927 44.3164 244.142 44.0645 244.29 43.7441C244.443 43.4238 244.519 43.0547 244.519 42.6367V42.625C244.519 42.207 244.443 41.8359 244.29 41.5117C244.142 41.1875 243.927 40.9336 243.646 40.75C243.368 40.5664 243.034 40.4746 242.644 40.4746C242.253 40.4746 241.921 40.5664 241.648 40.75C241.378 40.9336 241.171 41.1875 241.027 41.5117C240.886 41.8359 240.816 42.207 240.816 42.625V42.6367C240.816 43.0547 240.886 43.4238 241.027 43.7441C241.171 44.0645 241.378 44.3164 241.648 44.5C241.921 44.6797 242.253 44.7695 242.644 44.7695ZM247.12 46V37.1758H248.14V40.6328H248.233C248.394 40.2969 248.624 40.0371 248.925 39.8535C249.226 39.666 249.608 39.5723 250.073 39.5723C250.546 39.5723 250.946 39.6641 251.274 39.8477C251.603 40.0273 251.853 40.291 252.024 40.6387C252.196 40.9863 252.282 41.4102 252.282 41.9102V46H251.263V42.1562C251.263 41.5859 251.142 41.1641 250.899 40.8906C250.661 40.6133 250.29 40.4746 249.786 40.4746C249.45 40.4746 249.159 40.5469 248.913 40.6914C248.667 40.8359 248.476 41.041 248.339 41.3066C248.206 41.5723 248.14 41.8906 248.14 42.2617V46H247.12ZM258.938 46.1113C258.462 46.1113 258.061 46.0215 257.737 45.8418C257.413 45.6582 257.169 45.3926 257.005 45.0449C256.844 44.6934 256.764 44.2695 256.764 43.7734V39.6836H257.784V43.5273C257.784 44.0938 257.893 44.5156 258.112 44.793C258.335 45.0703 258.698 45.209 259.202 45.209C259.479 45.209 259.723 45.168 259.934 45.0859C260.149 45.0039 260.329 44.8867 260.473 44.7344C260.618 44.5781 260.725 44.3906 260.796 44.1719C260.87 43.9492 260.907 43.6992 260.907 43.4219V39.6836H261.926V46H260.907V45.0566H260.813C260.712 45.2793 260.573 45.4707 260.397 45.6309C260.221 45.7871 260.01 45.9062 259.764 45.9883C259.522 46.0703 259.247 46.1113 258.938 46.1113ZM263.491 48.1094V39.6836H264.51V40.6914H264.604C264.733 40.457 264.895 40.2578 265.09 40.0938C265.286 39.9258 265.508 39.7969 265.758 39.707C266.008 39.6172 266.28 39.5723 266.573 39.5723C267.108 39.5723 267.573 39.709 267.967 39.9824C268.366 40.252 268.674 40.6309 268.893 41.1191C269.112 41.6074 269.221 42.1797 269.221 42.8359V42.8477C269.221 43.5078 269.112 44.082 268.893 44.5703C268.674 45.0586 268.366 45.4375 267.967 45.707C267.573 45.9766 267.108 46.1113 266.573 46.1113C266.284 46.1113 266.01 46.0664 265.753 45.9766C265.499 45.8828 265.272 45.7539 265.073 45.5898C264.878 45.4258 264.721 45.2305 264.604 45.0039H264.51V48.1094H263.491ZM266.338 45.209C266.725 45.209 267.055 45.1152 267.329 44.9277C267.602 44.7363 267.811 44.4648 267.956 44.1133C268.104 43.7578 268.178 43.3359 268.178 42.8477V42.8359C268.178 42.3438 268.104 41.9219 267.956 41.5703C267.811 41.2188 267.602 40.9492 267.329 40.7617C267.055 40.5703 266.725 40.4746 266.338 40.4746C265.956 40.4746 265.626 40.5703 265.348 40.7617C265.071 40.9531 264.858 41.2246 264.71 41.5762C264.561 41.9277 264.487 42.3477 264.487 42.8359V42.8477C264.487 43.332 264.561 43.752 264.71 44.1074C264.858 44.459 265.071 44.7305 265.348 44.9219C265.626 45.1133 265.956 45.209 266.338 45.209ZM275.754 46.0469C275.106 46.0469 274.635 45.916 274.342 45.6543C274.053 45.3926 273.908 44.9609 273.908 44.3594V40.5273H272.912V39.6836H273.908V38.0488H274.963V39.6836H276.346V40.5273H274.963V44.1016C274.963 44.4727 275.033 44.7402 275.174 44.9043C275.315 45.0645 275.549 45.1445 275.877 45.1445C275.967 45.1445 276.043 45.1426 276.106 45.1387C276.172 45.1348 276.252 45.1289 276.346 45.1211V45.9883C276.248 46.0039 276.151 46.0176 276.053 46.0293C275.955 46.041 275.856 46.0469 275.754 46.0469ZM280.043 46.1113C279.445 46.1113 278.928 45.9805 278.49 45.7188C278.057 45.4531 277.721 45.0762 277.482 44.5879C277.248 44.0996 277.131 43.5195 277.131 42.8477V42.8359C277.131 42.1602 277.248 41.5781 277.482 41.0898C277.721 40.6016 278.057 40.2266 278.49 39.9648C278.928 39.7031 279.445 39.5723 280.043 39.5723C280.645 39.5723 281.162 39.7031 281.596 39.9648C282.029 40.2266 282.363 40.6016 282.598 41.0898C282.836 41.5781 282.955 42.1602 282.955 42.8359V42.8477C282.955 43.5195 282.836 44.0996 282.598 44.5879C282.363 45.0762 282.029 45.4531 281.596 45.7188C281.162 45.9805 280.645 46.1113 280.043 46.1113ZM280.043 45.209C280.441 45.209 280.779 45.1152 281.057 44.9277C281.334 44.7402 281.545 44.4707 281.69 44.1191C281.838 43.7676 281.912 43.3438 281.912 42.8477V42.8359C281.912 42.3359 281.838 41.9102 281.69 41.5586C281.545 41.207 281.334 40.9395 281.057 40.7559C280.779 40.5684 280.441 40.4746 280.043 40.4746C279.645 40.4746 279.307 40.5684 279.029 40.7559C278.752 40.9395 278.539 41.207 278.391 41.5586C278.246 41.9102 278.174 42.3359 278.174 42.8359V42.8477C278.174 43.3438 278.246 43.7676 278.391 44.1191C278.539 44.4707 278.752 44.7402 279.029 44.9277C279.307 45.1152 279.645 45.209 280.043 45.209ZM285.551 43.3867V42.8477C285.551 42.5898 285.592 42.3574 285.674 42.1504C285.756 41.9395 285.885 41.7461 286.06 41.5703C286.236 41.3945 286.457 41.2266 286.723 41.0664C286.949 40.9258 287.131 40.7891 287.268 40.6562C287.408 40.5195 287.51 40.3711 287.572 40.2109C287.635 40.0508 287.666 39.8672 287.666 39.6602V39.6484C287.666 39.4062 287.607 39.1914 287.49 39.0039C287.373 38.8164 287.207 38.668 286.992 38.5586C286.777 38.4492 286.523 38.3945 286.23 38.3945C285.937 38.3945 285.682 38.4492 285.463 38.5586C285.244 38.668 285.07 38.8242 284.941 39.0273C284.816 39.2305 284.744 39.4707 284.725 39.748L284.713 39.7539L283.717 39.7598V39.748C283.74 39.3301 283.85 38.9492 284.045 38.6055C284.24 38.2617 284.523 37.9883 284.894 37.7852C285.266 37.582 285.725 37.4805 286.271 37.4805C286.764 37.4805 287.195 37.5742 287.566 37.7617C287.941 37.9453 288.232 38.1973 288.439 38.5176C288.65 38.834 288.756 39.1934 288.756 39.5957V39.6074C288.756 39.9121 288.705 40.1895 288.603 40.4395C288.506 40.6855 288.365 40.9062 288.182 41.1016C287.998 41.2969 287.781 41.4707 287.531 41.623C287.285 41.7676 287.092 41.9062 286.951 42.0391C286.814 42.1719 286.717 42.3145 286.658 42.4668C286.603 42.6191 286.576 42.7988 286.576 43.0059V43.3867H285.551ZM286.143 46.1055C285.904 46.1055 285.709 46.0293 285.557 45.877C285.404 45.7246 285.328 45.5293 285.328 45.291C285.328 45.0488 285.404 44.8516 285.557 44.6992C285.709 44.5469 285.904 44.4707 286.143 44.4707C286.381 44.4707 286.574 44.5469 286.723 44.6992C286.875 44.8516 286.951 45.0488 286.951 45.291C286.951 45.5293 286.875 45.7246 286.723 45.877C286.574 46.0293 286.381 46.1055 286.143 46.1055Z" fill="white"/>
<path d="M332.943 29V28.2734L335.803 25.1797C336.162 24.7891 336.443 24.4668 336.646 24.2129C336.85 23.9551 336.992 23.7227 337.074 23.5156C337.156 23.3086 337.197 23.082 337.197 22.8359V22.8242C337.197 22.5273 337.133 22.2617 337.004 22.0273C336.875 21.793 336.691 21.6074 336.453 21.4707C336.215 21.334 335.93 21.2656 335.598 21.2656C335.262 21.2656 334.967 21.3359 334.713 21.4766C334.459 21.6133 334.262 21.8066 334.121 22.0566C333.98 22.3027 333.91 22.5918 333.91 22.9238L333.904 22.9355L332.896 22.9297L332.885 22.9238C332.889 22.4238 333.01 21.9805 333.248 21.5938C333.486 21.2031 333.814 20.8984 334.232 20.6797C334.65 20.457 335.129 20.3457 335.668 20.3457C336.16 20.3457 336.604 20.4492 336.998 20.6562C337.393 20.8594 337.703 21.1387 337.93 21.4941C338.16 21.8496 338.275 22.2559 338.275 22.7129V22.7246C338.275 23.0449 338.219 23.3535 338.105 23.6504C337.996 23.9473 337.801 24.2773 337.52 24.6406C337.238 25 336.842 25.4434 336.33 25.9707L334.145 28.2266L334.408 27.7402V28.2266L334.15 28.0508H338.416V29H332.943ZM339.851 29V22.6836H340.871V23.6445H340.965C341.105 23.3047 341.32 23.041 341.609 22.8535C341.902 22.666 342.256 22.5723 342.67 22.5723C342.955 22.5723 343.211 22.6191 343.437 22.7129C343.664 22.8066 343.859 22.9375 344.023 23.1055C344.187 23.2695 344.318 23.4609 344.416 23.6797H344.51C344.623 23.457 344.775 23.2637 344.967 23.0996C345.158 22.9316 345.379 22.8027 345.629 22.7129C345.883 22.6191 346.154 22.5723 346.443 22.5723C346.873 22.5723 347.236 22.6523 347.533 22.8125C347.834 22.9727 348.062 23.207 348.219 23.5156C348.375 23.8203 348.453 24.1934 348.453 24.6348V29H347.433V24.8691C347.433 24.5566 347.385 24.2988 347.287 24.0957C347.193 23.8887 347.049 23.7344 346.853 23.6328C346.658 23.5273 346.412 23.4746 346.115 23.4746C345.822 23.4746 345.566 23.541 345.347 23.6738C345.129 23.8066 344.959 23.9844 344.838 24.207C344.717 24.4258 344.656 24.6699 344.656 24.9395V29H343.637V24.7109C343.637 24.4609 343.582 24.2441 343.472 24.0605C343.367 23.873 343.215 23.7285 343.015 23.627C342.82 23.5254 342.59 23.4746 342.324 23.4746C342.051 23.4746 341.803 23.5469 341.58 23.6914C341.361 23.8359 341.187 24.0312 341.058 24.2773C340.933 24.5195 340.871 24.7891 340.871 25.0859V29H339.851Z" fill="white" fill-opacity="0.5"/>
</svg>
