<svg width="368" height="66" viewBox="0 0 368 66" fill="none" xmlns="http://www.w3.org/2000/svg">
<rect width="368" height="66" rx="12" fill="#D9D9D9" fill-opacity="0.5"/>
<path d="M77.3867 29.2529C76.4342 29.2529 75.6117 29.0433 74.9189 28.624C74.2262 28.2048 73.693 27.6077 73.3193 26.833C72.9456 26.0583 72.7588 25.1377 72.7588 24.0713V24.0576C72.7588 22.9912 72.9456 22.0706 73.3193 21.2959C73.693 20.5212 74.224 19.9264 74.9121 19.5117C75.6048 19.0924 76.4297 18.8828 77.3867 18.8828C78.166 18.8828 78.8656 19.0355 79.4854 19.3408C80.1097 19.6462 80.6133 20.0677 80.9961 20.6055C81.3789 21.1432 81.6022 21.7585 81.666 22.4512V22.54H79.6631L79.6562 22.4922C79.5879 22.123 79.4489 21.7995 79.2393 21.5215C79.0296 21.2389 78.7653 21.0202 78.4463 20.8652C78.1318 20.7103 77.7786 20.6328 77.3867 20.6328C76.8717 20.6328 76.4251 20.7718 76.0469 21.0498C75.6686 21.3232 75.377 21.7174 75.1719 22.2324C74.9714 22.7428 74.8711 23.3512 74.8711 24.0576V24.0713C74.8711 24.7731 74.9714 25.3815 75.1719 25.8965C75.377 26.4115 75.6686 26.8079 76.0469 27.0859C76.4251 27.3639 76.874 27.5029 77.3936 27.5029C77.79 27.5029 78.1432 27.4323 78.4531 27.291C78.7676 27.1452 79.0273 26.9424 79.2324 26.6826C79.4421 26.4183 79.5811 26.1107 79.6494 25.7598L79.6631 25.6982H81.6729V25.7803C81.5999 26.4684 81.3743 27.0723 80.9961 27.5918C80.6178 28.1113 80.1211 28.5192 79.5059 28.8154C78.8906 29.1071 78.1842 29.2529 77.3867 29.2529ZM83.1034 29V18.5957H85.0995V22.6357H85.2225C85.3957 22.2256 85.6646 21.902 86.0291 21.665C86.3937 21.4281 86.8449 21.3096 87.3827 21.3096C87.9432 21.3096 88.4126 21.4212 88.7909 21.6445C89.1737 21.8633 89.4631 22.1823 89.659 22.6016C89.8595 23.0208 89.9598 23.5312 89.9598 24.1328V29H87.9637V24.584C87.9637 24.0508 87.8521 23.6475 87.6287 23.374C87.4054 23.1006 87.0568 22.9639 86.5829 22.9639C86.2775 22.9639 86.0132 23.0345 85.7899 23.1758C85.5711 23.3125 85.4002 23.5062 85.2772 23.7568C85.1587 24.0075 85.0995 24.3037 85.0995 24.6455V29H83.1034ZM94.863 29.1572C94.1019 29.1572 93.4457 29 92.8942 28.6855C92.3473 28.3665 91.9258 27.9154 91.6296 27.332C91.3333 26.7487 91.1852 26.0537 91.1852 25.2471V25.2402C91.1852 24.4427 91.3311 23.75 91.6227 23.1621C91.919 22.5742 92.336 22.1185 92.8737 21.7949C93.416 21.4714 94.0518 21.3096 94.7809 21.3096C95.5147 21.3096 96.1481 21.4668 96.6813 21.7812C97.2145 22.0957 97.6247 22.5355 97.9118 23.1006C98.1989 23.6657 98.3425 24.3288 98.3425 25.0898V25.7119H92.1833V24.4609H97.3854L96.4489 25.6436V24.8438C96.4489 24.3926 96.3783 24.0166 96.237 23.7158C96.1003 23.415 95.9089 23.1895 95.6628 23.0391C95.4212 22.8841 95.1387 22.8066 94.8151 22.8066C94.4961 22.8066 94.2113 22.8864 93.9606 23.0459C93.7145 23.2008 93.5186 23.431 93.3727 23.7363C93.2315 24.0371 93.1608 24.4062 93.1608 24.8438V25.6504C93.1608 26.0742 93.2315 26.4365 93.3727 26.7373C93.514 27.0381 93.7145 27.2682 93.9743 27.4277C94.2341 27.5872 94.544 27.667 94.904 27.667C95.1957 27.667 95.444 27.6237 95.6491 27.5371C95.8542 27.4505 96.0182 27.3503 96.1413 27.2363C96.2689 27.1178 96.3555 27.0107 96.4011 26.915L96.4216 26.874H98.2809L98.2673 26.9424C98.208 27.1794 98.1009 27.4277 97.946 27.6875C97.791 27.9427 97.5768 28.182 97.3034 28.4053C97.0345 28.6286 96.6973 28.8109 96.2917 28.9521C95.8906 29.0889 95.4144 29.1572 94.863 29.1572ZM102.952 29.1572C102.168 29.1572 101.5 29.0046 100.949 28.6992C100.402 28.3893 99.9849 27.9427 99.6978 27.3594C99.4107 26.7715 99.2671 26.0605 99.2671 25.2266V25.2129C99.2671 24.3835 99.4107 23.6794 99.6978 23.1006C99.9849 22.5218 100.402 22.0798 100.949 21.7744C101.5 21.4645 102.168 21.3096 102.952 21.3096C103.617 21.3096 104.189 21.4235 104.667 21.6514C105.146 21.8792 105.524 22.2005 105.802 22.6152C106.08 23.0299 106.249 23.5176 106.308 24.0781V24.0986H104.456L104.449 24.085C104.38 23.7204 104.221 23.4287 103.97 23.21C103.724 22.9867 103.387 22.875 102.959 22.875C102.603 22.875 102.3 22.9661 102.049 23.1484C101.803 23.3262 101.616 23.5882 101.489 23.9346C101.361 24.2809 101.297 24.707 101.297 25.2129V25.2266C101.297 25.7324 101.361 26.1631 101.489 26.5186C101.621 26.8695 101.81 27.1361 102.056 27.3184C102.302 27.5007 102.603 27.5918 102.959 27.5918C103.369 27.5918 103.697 27.4961 103.943 27.3047C104.189 27.1133 104.355 26.8262 104.442 26.4434L104.456 26.4229L106.301 26.416V26.4639C106.228 27.0062 106.053 27.4801 105.775 27.8857C105.497 28.2913 105.121 28.6058 104.647 28.8291C104.173 29.0479 103.608 29.1572 102.952 29.1572ZM107.595 29V18.5957H109.591V29H107.595ZM112.332 29L110.022 25.7324L111.512 24.5361L114.691 29H112.332ZM109.454 26.6211L109.386 24.4473H109.714L112.23 21.4736H114.493L111.396 24.8916L110.329 25.6914L109.454 26.6211ZM121.366 29.1572C120.806 29.1572 120.334 29.0479 119.951 28.8291C119.573 28.6104 119.288 28.2913 119.097 27.8721C118.905 27.4482 118.81 26.9378 118.81 26.3408V21.4736H120.806V25.8828C120.806 26.416 120.911 26.8193 121.12 27.0928C121.334 27.3662 121.678 27.5029 122.152 27.5029C122.398 27.5029 122.615 27.4642 122.802 27.3867C122.993 27.3047 123.153 27.1908 123.28 27.0449C123.408 26.8991 123.504 26.7236 123.567 26.5186C123.636 26.3089 123.67 26.0765 123.67 25.8213V21.4736H125.666V29H123.67V27.8379H123.547C123.433 28.1113 123.273 28.3483 123.068 28.5488C122.863 28.7448 122.617 28.8952 122.33 29C122.043 29.1048 121.722 29.1572 121.366 29.1572ZM127.329 31.4951V21.4736H129.325V22.6357H129.448C129.58 22.3669 129.753 22.1367 129.968 21.9453C130.186 21.7539 130.442 21.6081 130.733 21.5078C131.025 21.403 131.349 21.3506 131.704 21.3506C132.333 21.3506 132.875 21.5078 133.331 21.8223C133.787 22.1367 134.138 22.5833 134.384 23.1621C134.634 23.7363 134.76 24.4245 134.76 25.2266V25.2402C134.76 26.0469 134.637 26.7396 134.391 27.3184C134.144 27.8971 133.794 28.3415 133.338 28.6514C132.882 28.9613 132.337 29.1162 131.704 29.1162C131.358 29.1162 131.036 29.0638 130.74 28.959C130.448 28.8496 130.191 28.6969 129.968 28.501C129.749 28.305 129.576 28.0703 129.448 27.7969H129.325V31.4951H127.329ZM131.02 27.4619C131.376 27.4619 131.679 27.373 131.93 27.1953C132.185 27.0176 132.381 26.7624 132.517 26.4297C132.659 26.097 132.729 25.7005 132.729 25.2402V25.2266C132.729 24.7663 132.659 24.3698 132.517 24.0371C132.381 23.7044 132.185 23.4492 131.93 23.2715C131.679 23.0938 131.376 23.0049 131.02 23.0049C130.669 23.0049 130.364 23.0938 130.104 23.2715C129.849 23.4492 129.651 23.7044 129.51 24.0371C129.373 24.3652 129.305 24.7617 129.305 25.2266V25.2402C129.305 25.696 129.375 26.0924 129.516 26.4297C129.658 26.7624 129.856 27.0176 130.111 27.1953C130.371 27.373 130.674 27.4619 131.02 27.4619ZM142.666 29.1572C141.895 29.1572 141.232 29.0023 140.676 28.6924C140.12 28.3779 139.694 27.929 139.398 27.3457C139.102 26.7578 138.954 26.056 138.954 25.2402V25.2266C138.954 24.4154 139.104 23.7181 139.405 23.1348C139.706 22.5514 140.132 22.1025 140.683 21.7881C141.239 21.4691 141.9 21.3096 142.666 21.3096C143.431 21.3096 144.09 21.4668 144.641 21.7812C145.197 22.0957 145.626 22.5469 145.926 23.1348C146.227 23.7181 146.378 24.4154 146.378 25.2266V25.2402C146.378 26.056 146.229 26.7578 145.933 27.3457C145.637 27.929 145.211 28.3779 144.655 28.6924C144.103 29.0023 143.44 29.1572 142.666 29.1572ZM142.666 27.5918C143.021 27.5918 143.322 27.4984 143.568 27.3115C143.814 27.1247 144.003 26.8558 144.135 26.5049C144.267 26.154 144.334 25.7324 144.334 25.2402V25.2266C144.334 24.7344 144.267 24.3151 144.135 23.9688C144.003 23.6178 143.812 23.349 143.561 23.1621C143.315 22.9707 143.016 22.875 142.666 22.875C142.315 22.875 142.014 22.9707 141.763 23.1621C141.517 23.349 141.328 23.6178 141.196 23.9688C141.064 24.3151 140.998 24.7344 140.998 25.2266V25.2402C140.998 25.737 141.061 26.1608 141.189 26.5117C141.321 26.8626 141.51 27.1315 141.756 27.3184C142.007 27.5007 142.31 27.5918 142.666 27.5918ZM147.664 29V21.4736H149.661V22.6357H149.784C149.957 22.2256 150.226 21.902 150.59 21.665C150.955 21.4281 151.406 21.3096 151.944 21.3096C152.782 21.3096 153.42 21.5557 153.858 22.0479C154.3 22.5355 154.521 23.2305 154.521 24.1328V29H152.525V24.584C152.525 24.0508 152.413 23.6475 152.19 23.374C151.967 23.1006 151.618 22.9639 151.144 22.9639C150.839 22.9639 150.574 23.0345 150.351 23.1758C150.132 23.3125 149.961 23.5062 149.838 23.7568C149.72 24.0075 149.661 24.3037 149.661 24.6455V29H147.664ZM158.879 29L162.304 19.1357H164.061V21.1045H163.459L161.046 29H158.879ZM160.711 26.6074L161.217 25.0625H165.776L166.282 26.6074H160.711ZM165.988 29L163.582 21.1045V19.1357H164.731L168.162 29H165.988ZM171.377 29.1572C170.816 29.1572 170.345 29.0479 169.962 28.8291C169.584 28.6104 169.299 28.2913 169.107 27.8721C168.916 27.4482 168.82 26.9378 168.82 26.3408V21.4736H170.816V25.8828C170.816 26.416 170.921 26.8193 171.131 27.0928C171.345 27.3662 171.689 27.5029 172.163 27.5029C172.409 27.5029 172.626 27.4642 172.812 27.3867C173.004 27.3047 173.163 27.1908 173.291 27.0449C173.419 26.8991 173.514 26.7236 173.578 26.5186C173.646 26.3089 173.681 26.0765 173.681 25.8213V21.4736H175.677V29H173.681V27.8379H173.558C173.444 28.1113 173.284 28.3483 173.079 28.5488C172.874 28.7448 172.628 28.8952 172.341 29C172.054 29.1048 171.732 29.1572 171.377 29.1572ZM180.334 29.1572C179.65 29.1572 179.067 29.0638 178.584 28.877C178.105 28.6855 177.729 28.4235 177.456 28.0908C177.187 27.7581 177.03 27.3776 176.984 26.9492L176.977 26.9219H178.939L178.953 26.9492C179.035 27.1816 179.19 27.373 179.418 27.5234C179.65 27.6738 179.962 27.749 180.354 27.749C180.609 27.749 180.833 27.7148 181.024 27.6465C181.216 27.5736 181.366 27.4756 181.475 27.3525C181.585 27.2295 181.639 27.0859 181.639 26.9219V26.9082C181.639 26.7077 181.557 26.5413 181.393 26.4092C181.229 26.277 180.956 26.1676 180.573 26.0811L179.315 25.8145C178.837 25.7142 178.438 25.5684 178.119 25.377C177.8 25.181 177.561 24.9417 177.401 24.6592C177.246 24.3766 177.169 24.0485 177.169 23.6748V23.668C177.169 23.194 177.299 22.7816 177.558 22.4307C177.823 22.0752 178.19 21.7995 178.659 21.6035C179.133 21.4076 179.682 21.3096 180.306 21.3096C180.963 21.3096 181.521 21.4098 181.981 21.6104C182.441 21.8063 182.795 22.0706 183.041 22.4033C183.291 22.7314 183.43 23.0983 183.458 23.5039V23.5312H181.605L181.598 23.4971C181.544 23.292 181.407 23.112 181.188 22.957C180.969 22.7975 180.673 22.7178 180.3 22.7178C180.072 22.7178 179.869 22.752 179.691 22.8203C179.513 22.8887 179.372 22.9844 179.267 23.1074C179.167 23.2305 179.117 23.3763 179.117 23.5449V23.5518C179.117 23.6839 179.151 23.8001 179.219 23.9004C179.288 24.0007 179.4 24.0872 179.554 24.1602C179.709 24.2331 179.917 24.2992 180.177 24.3584L181.427 24.625C182.179 24.7891 182.735 25.0352 183.095 25.3633C183.455 25.6914 183.636 26.1335 183.636 26.6895V26.6963C183.636 27.193 183.494 27.626 183.212 27.9951C182.929 28.3643 182.539 28.6514 182.043 28.8564C181.546 29.057 180.976 29.1572 180.334 29.1572ZM188.012 29.0273C187.101 29.0273 186.445 28.8678 186.044 28.5488C185.643 28.2253 185.442 27.6989 185.442 26.9697V22.9775H184.28V21.4736H185.442V19.6758H187.459V21.4736H189.01V22.9775H187.459V26.5117C187.459 26.849 187.534 27.0973 187.684 27.2568C187.839 27.4118 188.085 27.4893 188.422 27.4893C188.55 27.4893 188.655 27.487 188.737 27.4824C188.824 27.4733 188.915 27.4642 189.01 27.4551V28.9385C188.887 28.9613 188.739 28.9818 188.566 29C188.393 29.0182 188.208 29.0273 188.012 29.0273ZM190.345 29V21.4736H192.341V29H190.345ZM191.35 20.3184C191.045 20.3184 190.78 20.2113 190.557 19.9971C190.334 19.7783 190.222 19.5163 190.222 19.2109C190.222 18.901 190.334 18.639 190.557 18.4248C190.78 18.2061 191.045 18.0967 191.35 18.0967C191.66 18.0967 191.924 18.2061 192.143 18.4248C192.362 18.639 192.471 18.901 192.471 19.2109C192.471 19.5163 192.362 19.7783 192.143 19.9971C191.924 20.2113 191.66 20.3184 191.35 20.3184ZM194.011 29V21.4736H196.007V22.6357H196.13C196.303 22.2256 196.572 21.902 196.937 21.665C197.301 21.4281 197.753 21.3096 198.29 21.3096C199.129 21.3096 199.767 21.5557 200.204 22.0479C200.646 22.5355 200.867 23.2305 200.867 24.1328V29H198.871V24.584C198.871 24.0508 198.76 23.6475 198.536 23.374C198.313 23.1006 197.964 22.9639 197.491 22.9639C197.185 22.9639 196.921 23.0345 196.698 23.1758C196.479 23.3125 196.308 23.5062 196.185 23.7568C196.066 24.0075 196.007 24.3037 196.007 24.6455V29H194.011ZM204.13 25.9033L204.116 25.5068C204.089 25.1468 204.112 24.8346 204.185 24.5703C204.262 24.3014 204.397 24.0622 204.588 23.8525C204.784 23.6429 205.037 23.4469 205.347 23.2646C205.643 23.0869 205.873 22.9251 206.037 22.7793C206.206 22.6335 206.324 22.4808 206.393 22.3213C206.461 22.1618 206.495 21.9749 206.495 21.7607V21.7471C206.495 21.5329 206.441 21.3438 206.331 21.1797C206.226 21.0111 206.076 20.8789 205.88 20.7832C205.684 20.6829 205.456 20.6328 205.196 20.6328C204.937 20.6328 204.709 20.6852 204.513 20.79C204.317 20.8949 204.162 21.043 204.048 21.2344C203.934 21.4212 203.87 21.6423 203.857 21.8975L203.843 21.9043L201.997 21.9111V21.8975C202.011 21.3415 202.148 20.8493 202.407 20.4209C202.672 19.988 203.048 19.6507 203.535 19.4092C204.027 19.1676 204.622 19.0469 205.319 19.0469C205.971 19.0469 206.539 19.1585 207.022 19.3818C207.509 19.6051 207.887 19.915 208.156 20.3115C208.43 20.708 208.567 21.166 208.567 21.6855V21.6992C208.567 22.041 208.512 22.3509 208.402 22.6289C208.293 22.9069 208.129 23.1598 207.91 23.3877C207.696 23.611 207.427 23.8184 207.104 24.0098C206.803 24.1829 206.568 24.3447 206.4 24.4951C206.231 24.641 206.112 24.7959 206.044 24.96C205.976 25.124 205.942 25.3177 205.942 25.541V25.9033H204.13ZM205.108 29.1982C204.725 29.1982 204.422 29.0957 204.198 28.8906C203.975 28.6855 203.863 28.4076 203.863 28.0566C203.863 27.6966 203.975 27.4163 204.198 27.2158C204.422 27.0107 204.725 26.9082 205.108 26.9082C205.49 26.9082 205.791 27.0107 206.01 27.2158C206.233 27.4163 206.345 27.6966 206.345 28.0566C206.345 28.4076 206.233 28.6855 206.01 28.8906C205.791 29.0957 205.49 29.1982 205.108 29.1982Z" fill="white"/>
<path d="M73.0781 46V37.5449H74.1328V41.2012H78.7734V37.5449H79.8281V46H78.7734V42.1504H74.1328V46H73.0781ZM84.0936 46.1113C83.492 46.1113 82.9745 45.9785 82.5409 45.7129C82.1112 45.4473 81.7791 45.0723 81.5448 44.5879C81.3143 44.0996 81.1991 43.5254 81.1991 42.8652V42.8594C81.1991 42.207 81.3143 41.6348 81.5448 41.1426C81.7791 40.6504 82.1092 40.2656 82.535 39.9883C82.9608 39.7109 83.4588 39.5723 84.0291 39.5723C84.6034 39.5723 85.0955 39.7051 85.5057 39.9707C85.9198 40.2363 86.2362 40.6074 86.4549 41.084C86.6776 41.5566 86.7889 42.1074 86.7889 42.7363V43.1348H81.7264V42.3203H86.2674L85.7635 43.0645V42.6602C85.7635 42.1641 85.6893 41.7559 85.5409 41.4355C85.3924 41.1152 85.1873 40.877 84.9256 40.7207C84.6639 40.5605 84.3631 40.4805 84.0233 40.4805C83.6834 40.4805 83.3787 40.5645 83.1092 40.7324C82.8436 40.8965 82.6327 41.1406 82.4764 41.4648C82.3202 41.7891 82.242 42.1875 82.242 42.6602V43.0645C82.242 43.5137 82.3182 43.8984 82.4705 44.2188C82.6229 44.5352 82.8397 44.7793 83.1209 44.9512C83.4022 45.1191 83.7342 45.2031 84.117 45.2031C84.4022 45.2031 84.6502 45.1641 84.8612 45.0859C85.0721 45.0078 85.2459 44.9082 85.3827 44.7871C85.5194 44.666 85.6151 44.543 85.6698 44.418L85.6932 44.3652H86.7127L86.701 44.4121C86.6463 44.627 86.5487 44.8359 86.408 45.0391C86.2713 45.2383 86.0936 45.4199 85.8748 45.584C85.6561 45.7441 85.3963 45.873 85.0955 45.9707C84.7987 46.0645 84.4647 46.1113 84.0936 46.1113ZM93.2339 46.1113C92.7652 46.1113 92.3511 46.041 91.9917 45.9004C91.6323 45.7559 91.3433 45.5547 91.1245 45.2969C90.9097 45.0391 90.7827 44.7363 90.7437 44.3887H91.7866C91.8726 44.6504 92.0405 44.8613 92.2905 45.0215C92.5405 45.1816 92.8667 45.2617 93.2691 45.2617C93.5542 45.2617 93.8042 45.2207 94.0191 45.1387C94.2378 45.0527 94.4097 44.9375 94.5347 44.793C94.6597 44.6445 94.7222 44.4746 94.7222 44.2832V44.2715C94.7222 44.0566 94.6362 43.875 94.4644 43.7266C94.2925 43.5742 94.0112 43.4512 93.6206 43.3574L92.6421 43.123C92.2476 43.0293 91.9234 42.9082 91.6695 42.7598C91.4155 42.6074 91.228 42.4219 91.107 42.2031C90.9859 41.9805 90.9253 41.7188 90.9253 41.418V41.4121C90.9253 41.0605 91.0269 40.7461 91.23 40.4688C91.437 40.1914 91.7183 39.9727 92.0737 39.8125C92.4292 39.6523 92.8296 39.5723 93.2749 39.5723C93.7163 39.5723 94.107 39.6426 94.4468 39.7832C94.7905 39.9199 95.0659 40.1152 95.273 40.3691C95.4839 40.623 95.6128 40.9219 95.6597 41.2656H94.6577C94.5913 41.0156 94.439 40.8125 94.2007 40.6562C93.9624 40.5 93.6519 40.4219 93.2691 40.4219C93.0191 40.4219 92.7964 40.4629 92.6011 40.5449C92.4058 40.623 92.2515 40.7324 92.1382 40.873C92.0249 41.0137 91.9683 41.1777 91.9683 41.3652V41.377C91.9683 41.5176 92.0054 41.6426 92.0796 41.752C92.1538 41.8613 92.2691 41.957 92.4253 42.0391C92.5816 42.1211 92.7827 42.1934 93.0288 42.2559L94.0015 42.4902C94.5952 42.6348 95.0366 42.8418 95.3257 43.1113C95.6187 43.3809 95.7652 43.7422 95.7652 44.1953V44.207C95.7652 44.582 95.6538 44.9141 95.4312 45.2031C95.2085 45.4883 94.9058 45.7109 94.523 45.8711C94.1441 46.0312 93.7144 46.1113 93.2339 46.1113ZM97.0072 48.1094V39.6836H98.0267V40.6914H98.1205C98.2494 40.457 98.4115 40.2578 98.6068 40.0938C98.8021 39.9258 99.0248 39.7969 99.2748 39.707C99.5248 39.6172 99.7962 39.5723 100.089 39.5723C100.624 39.5723 101.089 39.709 101.484 39.9824C101.882 40.252 102.191 40.6309 102.41 41.1191C102.628 41.6074 102.738 42.1797 102.738 42.8359V42.8477C102.738 43.5078 102.628 44.082 102.41 44.5703C102.191 45.0586 101.882 45.4375 101.484 45.707C101.089 45.9766 100.624 46.1113 100.089 46.1113C99.8002 46.1113 99.5267 46.0664 99.2689 45.9766C99.015 45.8828 98.7884 45.7539 98.5892 45.5898C98.3939 45.4258 98.2377 45.2305 98.1205 45.0039H98.0267V48.1094H97.0072ZM99.8548 45.209C100.242 45.209 100.572 45.1152 100.845 44.9277C101.119 44.7363 101.327 44.4648 101.472 44.1133C101.62 43.7578 101.695 43.3359 101.695 42.8477V42.8359C101.695 42.3438 101.62 41.9219 101.472 41.5703C101.327 41.2188 101.119 40.9492 100.845 40.7617C100.572 40.5703 100.242 40.4746 99.8548 40.4746C99.472 40.4746 99.142 40.5703 98.8646 40.7617C98.5873 40.9531 98.3744 41.2246 98.2259 41.5762C98.0775 41.9277 98.0033 42.3477 98.0033 42.8359V42.8477C98.0033 43.332 98.0775 43.752 98.2259 44.1074C98.3744 44.459 98.5873 44.7305 98.8646 44.9219C99.142 45.1133 99.472 45.209 99.8548 45.209ZM106.57 46.1113C105.968 46.1113 105.45 45.9785 105.017 45.7129C104.587 45.4473 104.255 45.0723 104.021 44.5879C103.79 44.0996 103.675 43.5254 103.675 42.8652V42.8594C103.675 42.207 103.79 41.6348 104.021 41.1426C104.255 40.6504 104.585 40.2656 105.011 39.9883C105.437 39.7109 105.935 39.5723 106.505 39.5723C107.079 39.5723 107.571 39.7051 107.982 39.9707C108.396 40.2363 108.712 40.6074 108.931 41.084C109.154 41.5566 109.265 42.1074 109.265 42.7363V43.1348H104.202V42.3203H108.743L108.239 43.0645V42.6602C108.239 42.1641 108.165 41.7559 108.017 41.4355C107.868 41.1152 107.663 40.877 107.402 40.7207C107.14 40.5605 106.839 40.4805 106.499 40.4805C106.159 40.4805 105.855 40.5645 105.585 40.7324C105.32 40.8965 105.109 41.1406 104.952 41.4648C104.796 41.7891 104.718 42.1875 104.718 42.6602V43.0645C104.718 43.5137 104.794 43.8984 104.946 44.2188C105.099 44.5352 105.316 44.7793 105.597 44.9512C105.878 45.1191 106.21 45.2031 106.593 45.2031C106.878 45.2031 107.126 45.1641 107.337 45.0859C107.548 45.0078 107.722 44.9082 107.859 44.7871C107.995 44.666 108.091 44.543 108.146 44.418L108.169 44.3652H109.189L109.177 44.4121C109.122 44.627 109.025 44.8359 108.884 45.0391C108.747 45.2383 108.57 45.4199 108.351 45.584C108.132 45.7441 107.872 45.873 107.571 45.9707C107.275 46.0645 106.941 46.1113 106.57 46.1113ZM110.507 46V39.6836H111.526V40.6328H111.62C111.78 40.2969 112.011 40.0371 112.312 39.8535C112.612 39.666 112.995 39.5723 113.46 39.5723C114.171 39.5723 114.716 39.7754 115.095 40.1816C115.478 40.584 115.669 41.1602 115.669 41.9102V46H114.649V42.1562C114.649 41.5859 114.528 41.1641 114.286 40.8906C114.048 40.6133 113.677 40.4746 113.173 40.4746C112.837 40.4746 112.546 40.5469 112.3 40.6914C112.054 40.8359 111.862 41.041 111.726 41.3066C111.593 41.5723 111.526 41.8906 111.526 42.2617V46H110.507ZM119.419 46.0469C118.77 46.0469 118.3 45.916 118.007 45.6543C117.718 45.3926 117.573 44.9609 117.573 44.3594V40.5273H116.577V39.6836H117.573V38.0488H118.628V39.6836H120.011V40.5273H118.628V44.1016C118.628 44.4727 118.698 44.7402 118.839 44.9043C118.979 45.0645 119.214 45.1445 119.542 45.1445C119.632 45.1445 119.708 45.1426 119.77 45.1387C119.837 45.1348 119.917 45.1289 120.011 45.1211V45.9883C119.913 46.0039 119.815 46.0176 119.718 46.0293C119.62 46.041 119.52 46.0469 119.419 46.0469ZM127.1 46.1406C126.518 46.1406 126.01 46.041 125.577 45.8418C125.143 45.6426 124.799 45.3691 124.545 45.0215C124.295 44.6738 124.151 44.2773 124.112 43.832L124.106 43.7617H125.12L125.126 43.8203C125.153 44.0977 125.251 44.3418 125.419 44.5527C125.59 44.7637 125.819 44.9297 126.104 45.0508C126.393 45.168 126.725 45.2266 127.1 45.2266C127.471 45.2266 127.795 45.1621 128.073 45.0332C128.354 44.9043 128.573 44.7266 128.729 44.5C128.885 44.2695 128.963 44.0059 128.963 43.709V43.6973C128.963 43.1777 128.79 42.7793 128.442 42.502C128.098 42.2207 127.629 42.0801 127.036 42.0801H125.975V41.1895H126.989C127.325 41.1895 127.622 41.127 127.879 41.002C128.137 40.873 128.338 40.6992 128.483 40.4805C128.627 40.2578 128.7 40.0059 128.7 39.7246V39.7129C128.7 39.416 128.637 39.1641 128.512 38.957C128.387 38.75 128.204 38.5918 127.961 38.4824C127.723 38.373 127.432 38.3184 127.088 38.3184C126.756 38.3184 126.46 38.375 126.198 38.4883C125.94 38.5977 125.733 38.7559 125.577 38.9629C125.42 39.1699 125.327 39.416 125.295 39.7012L125.29 39.7598H124.276L124.282 39.7012C124.329 39.2402 124.473 38.8379 124.715 38.4941C124.961 38.1504 125.286 37.8828 125.688 37.6914C126.094 37.5 126.561 37.4043 127.088 37.4043C127.627 37.4043 128.096 37.498 128.495 37.6855C128.897 37.8691 129.208 38.125 129.426 38.4531C129.649 38.7773 129.76 39.1543 129.76 39.584V39.5957C129.76 39.9434 129.684 40.252 129.532 40.5215C129.379 40.791 129.169 41.0156 128.899 41.1953C128.629 41.375 128.319 41.502 127.967 41.5762V41.5996C128.585 41.6504 129.083 41.8594 129.461 42.2266C129.844 42.5898 130.036 43.0723 130.036 43.6738V43.6855C130.036 44.1543 129.909 44.5742 129.655 44.9453C129.401 45.3164 129.053 45.6094 128.612 45.8242C128.17 46.0352 127.667 46.1406 127.1 46.1406ZM134.506 46V37.1758H135.526V40.6328H135.619C135.78 40.2969 136.01 40.0371 136.311 39.8535C136.612 39.666 136.994 39.5723 137.459 39.5723C137.932 39.5723 138.332 39.6641 138.66 39.8477C138.989 40.0273 139.239 40.291 139.41 40.6387C139.582 40.9863 139.668 41.4102 139.668 41.9102V46H138.649V42.1562C138.649 41.5859 138.528 41.1641 138.285 40.8906C138.047 40.6133 137.676 40.4746 137.172 40.4746C136.836 40.4746 136.545 40.5469 136.299 40.6914C136.053 40.8359 135.862 41.041 135.725 41.3066C135.592 41.5723 135.526 41.8906 135.526 42.2617V46H134.506ZM143.77 46.1113C143.172 46.1113 142.654 45.9805 142.217 45.7188C141.783 45.4531 141.447 45.0762 141.209 44.5879C140.975 44.0996 140.857 43.5195 140.857 42.8477V42.8359C140.857 42.1602 140.975 41.5781 141.209 41.0898C141.447 40.6016 141.783 40.2266 142.217 39.9648C142.654 39.7031 143.172 39.5723 143.77 39.5723C144.371 39.5723 144.889 39.7031 145.322 39.9648C145.756 40.2266 146.09 40.6016 146.324 41.0898C146.563 41.5781 146.682 42.1602 146.682 42.8359V42.8477C146.682 43.5195 146.563 44.0996 146.324 44.5879C146.09 45.0762 145.756 45.4531 145.322 45.7188C144.889 45.9805 144.371 46.1113 143.77 46.1113ZM143.77 45.209C144.168 45.209 144.506 45.1152 144.783 44.9277C145.061 44.7402 145.272 44.4707 145.416 44.1191C145.565 43.7676 145.639 43.3438 145.639 42.8477V42.8359C145.639 42.3359 145.565 41.9102 145.416 41.5586C145.272 41.207 145.061 40.9395 144.783 40.7559C144.506 40.5684 144.168 40.4746 143.77 40.4746C143.371 40.4746 143.033 40.5684 142.756 40.7559C142.479 40.9395 142.266 41.207 142.117 41.5586C141.973 41.9102 141.9 42.3359 141.9 42.8359V42.8477C141.9 43.3438 141.973 43.7676 142.117 44.1191C142.266 44.4707 142.479 44.7402 142.756 44.9277C143.033 45.1152 143.371 45.209 143.77 45.209ZM150.039 46.1113C149.562 46.1113 149.162 46.0215 148.838 45.8418C148.514 45.6582 148.269 45.3926 148.105 45.0449C147.945 44.6934 147.865 44.2695 147.865 43.7734V39.6836H148.885V43.5273C148.885 44.0938 148.994 44.5156 149.213 44.793C149.435 45.0703 149.799 45.209 150.303 45.209C150.58 45.209 150.824 45.168 151.035 45.0859C151.25 45.0039 151.43 44.8867 151.574 44.7344C151.719 44.5781 151.826 44.3906 151.896 44.1719C151.971 43.9492 152.008 43.6992 152.008 43.4219V39.6836H153.027V46H152.008V45.0566H151.914C151.812 45.2793 151.674 45.4707 151.498 45.6309C151.322 45.7871 151.111 45.9062 150.865 45.9883C150.623 46.0703 150.348 46.1113 150.039 46.1113ZM154.592 46V39.6836H155.611V40.6211H155.705C155.826 40.2891 156.031 40.0312 156.32 39.8477C156.609 39.6641 156.967 39.5723 157.392 39.5723C157.49 39.5723 157.586 39.5781 157.679 39.5898C157.777 39.5977 157.851 39.6055 157.902 39.6133V40.6035C157.797 40.584 157.693 40.5703 157.592 40.5625C157.494 40.5508 157.388 40.5449 157.275 40.5449C156.951 40.5449 156.664 40.6094 156.414 40.7383C156.164 40.8672 155.967 41.0469 155.822 41.2773C155.681 41.5078 155.611 41.7773 155.611 42.0859V46H154.592ZM160.873 46.1113C160.404 46.1113 159.99 46.041 159.63 45.9004C159.271 45.7559 158.982 45.5547 158.763 45.2969C158.548 45.0391 158.421 44.7363 158.382 44.3887H159.425C159.511 44.6504 159.679 44.8613 159.929 45.0215C160.179 45.1816 160.505 45.2617 160.908 45.2617C161.193 45.2617 161.443 45.2207 161.658 45.1387C161.877 45.0527 162.048 44.9375 162.173 44.793C162.298 44.6445 162.361 44.4746 162.361 44.2832V44.2715C162.361 44.0566 162.275 43.875 162.103 43.7266C161.931 43.5742 161.65 43.4512 161.259 43.3574L160.281 43.123C159.886 43.0293 159.562 42.9082 159.308 42.7598C159.054 42.6074 158.867 42.4219 158.746 42.2031C158.625 41.9805 158.564 41.7188 158.564 41.418V41.4121C158.564 41.0605 158.666 40.7461 158.869 40.4688C159.076 40.1914 159.357 39.9727 159.713 39.8125C160.068 39.6523 160.468 39.5723 160.914 39.5723C161.355 39.5723 161.746 39.6426 162.086 39.7832C162.429 39.9199 162.705 40.1152 162.912 40.3691C163.123 40.623 163.252 40.9219 163.298 41.2656H162.296C162.23 41.0156 162.078 40.8125 161.839 40.6562C161.601 40.5 161.291 40.4219 160.908 40.4219C160.658 40.4219 160.435 40.4629 160.24 40.5449C160.045 40.623 159.89 40.7324 159.777 40.873C159.664 41.0137 159.607 41.1777 159.607 41.3652V41.377C159.607 41.5176 159.644 41.6426 159.718 41.752C159.793 41.8613 159.908 41.957 160.064 42.0391C160.22 42.1211 160.421 42.1934 160.668 42.2559L161.64 42.4902C162.234 42.6348 162.675 42.8418 162.964 43.1113C163.257 43.3809 163.404 43.7422 163.404 44.1953V44.207C163.404 44.582 163.293 44.9141 163.07 45.2031C162.847 45.4883 162.545 45.7109 162.162 45.8711C161.783 46.0312 161.353 46.1113 160.873 46.1113ZM169.415 46.1113C169.017 46.1113 168.658 46.0352 168.337 45.8828C168.021 45.7305 167.769 45.5137 167.581 45.2324C167.398 44.9512 167.306 44.6191 167.306 44.2363V44.2246C167.306 43.8496 167.396 43.5293 167.575 43.2637C167.755 42.9941 168.017 42.7832 168.361 42.6309C168.704 42.4785 169.12 42.3887 169.609 42.3613L171.929 42.2207V43.0352L169.732 43.1758C169.251 43.2031 168.9 43.3027 168.677 43.4746C168.458 43.6465 168.349 43.8887 168.349 44.2012V44.2129C168.349 44.5332 168.47 44.7832 168.712 44.9629C168.954 45.1387 169.259 45.2266 169.626 45.2266C169.974 45.2266 170.283 45.1582 170.552 45.0215C170.822 44.8809 171.033 44.6914 171.185 44.4531C171.341 44.2148 171.419 43.9453 171.419 43.6445V41.6758C171.419 41.2852 171.3 40.9883 171.062 40.7852C170.827 40.5781 170.474 40.4746 170.001 40.4746C169.622 40.4746 169.312 40.543 169.07 40.6797C168.827 40.8125 168.665 41.002 168.583 41.248L168.577 41.2656H167.558L167.564 41.2305C167.618 40.8984 167.755 40.6094 167.974 40.3633C168.197 40.1133 168.484 39.9199 168.835 39.7832C169.187 39.6426 169.587 39.5723 170.036 39.5723C170.552 39.5723 170.988 39.6562 171.343 39.8242C171.702 39.9922 171.974 40.2344 172.158 40.5508C172.345 40.8633 172.439 41.2383 172.439 41.6758V46H171.419V45.0684H171.325C171.193 45.291 171.031 45.4805 170.839 45.6367C170.652 45.793 170.439 45.9121 170.2 45.9941C169.962 46.0723 169.7 46.1113 169.415 46.1113ZM176.206 46.0469C175.558 46.0469 175.087 45.916 174.794 45.6543C174.505 45.3926 174.36 44.9609 174.36 44.3594V40.5273H173.364V39.6836H174.36V38.0488H175.415V39.6836H176.798V40.5273H175.415V44.1016C175.415 44.4727 175.485 44.7402 175.626 44.9043C175.767 45.0645 176.001 45.1445 176.329 45.1445C176.419 45.1445 176.495 45.1426 176.558 45.1387C176.624 45.1348 176.704 45.1289 176.798 45.1211V45.9883C176.7 46.0039 176.603 46.0176 176.505 46.0293C176.407 46.041 176.308 46.0469 176.206 46.0469ZM183.261 46.0469C182.612 46.0469 182.141 45.916 181.848 45.6543C181.559 45.3926 181.415 44.9609 181.415 44.3594V40.5273H180.419V39.6836H181.415V38.0488H182.47V39.6836H183.852V40.5273H182.47V44.1016C182.47 44.4727 182.54 44.7402 182.68 44.9043C182.821 45.0645 183.055 45.1445 183.384 45.1445C183.473 45.1445 183.55 45.1426 183.612 45.1387C183.679 45.1348 183.759 45.1289 183.852 45.1211V45.9883C183.755 46.0039 183.657 46.0176 183.559 46.0293C183.462 46.041 183.362 46.0469 183.261 46.0469ZM185.094 46V37.1758H186.114V40.6328H186.208C186.368 40.2969 186.598 40.0371 186.899 39.8535C187.2 39.666 187.583 39.5723 188.048 39.5723C188.52 39.5723 188.921 39.6641 189.249 39.8477C189.577 40.0273 189.827 40.291 189.999 40.6387C190.171 40.9863 190.256 41.4102 190.256 41.9102V46H189.237V42.1562C189.237 41.5859 189.116 41.1641 188.874 40.8906C188.635 40.6133 188.264 40.4746 187.76 40.4746C187.424 40.4746 187.133 40.5469 186.887 40.6914C186.641 40.8359 186.45 41.041 186.313 41.3066C186.18 41.5723 186.114 41.8906 186.114 42.2617V46H185.094ZM194.34 46.1113C193.739 46.1113 193.221 45.9785 192.788 45.7129C192.358 45.4473 192.026 45.0723 191.791 44.5879C191.561 44.0996 191.446 43.5254 191.446 42.8652V42.8594C191.446 42.207 191.561 41.6348 191.791 41.1426C192.026 40.6504 192.356 40.2656 192.782 39.9883C193.207 39.7109 193.706 39.5723 194.276 39.5723C194.85 39.5723 195.342 39.7051 195.752 39.9707C196.166 40.2363 196.483 40.6074 196.702 41.084C196.924 41.5566 197.036 42.1074 197.036 42.7363V43.1348H191.973V42.3203H196.514L196.01 43.0645V42.6602C196.01 42.1641 195.936 41.7559 195.788 41.4355C195.639 41.1152 195.434 40.877 195.172 40.7207C194.911 40.5605 194.61 40.4805 194.27 40.4805C193.93 40.4805 193.625 40.5645 193.356 40.7324C193.09 40.8965 192.879 41.1406 192.723 41.4648C192.567 41.7891 192.489 42.1875 192.489 42.6602V43.0645C192.489 43.5137 192.565 43.8984 192.717 44.2188C192.87 44.5352 193.086 44.7793 193.368 44.9512C193.649 45.1191 193.981 45.2031 194.364 45.2031C194.649 45.2031 194.897 45.1641 195.108 45.0859C195.319 45.0078 195.493 44.9082 195.629 44.7871C195.766 44.666 195.862 44.543 195.916 44.418L195.94 44.3652H196.959L196.948 44.4121C196.893 44.627 196.795 44.8359 196.655 45.0391C196.518 45.2383 196.34 45.4199 196.122 45.584C195.903 45.7441 195.643 45.873 195.342 45.9707C195.045 46.0645 194.711 46.1113 194.34 46.1113ZM203.914 48.2266C203.406 48.2266 202.963 48.1543 202.584 48.0098C202.205 47.8691 201.902 47.668 201.676 47.4062C201.453 47.1484 201.315 46.8477 201.26 46.5039L201.272 46.498H202.326L202.332 46.5039C202.387 46.7422 202.551 46.9375 202.824 47.0898C203.098 47.2461 203.461 47.3242 203.914 47.3242C204.481 47.3242 204.922 47.1953 205.238 46.9375C205.559 46.6836 205.719 46.3242 205.719 45.8594V44.582H205.625C205.492 44.8125 205.326 45.0098 205.127 45.1738C204.928 45.3379 204.703 45.4629 204.453 45.5488C204.203 45.6309 203.934 45.6719 203.645 45.6719C203.102 45.6719 202.631 45.543 202.233 45.2852C201.838 45.0234 201.533 44.6641 201.319 44.207C201.104 43.75 200.996 43.2266 200.996 42.6367V42.625C200.996 42.0352 201.104 41.5117 201.319 41.0547C201.537 40.5938 201.846 40.2324 202.244 39.9707C202.643 39.7051 203.117 39.5723 203.668 39.5723C203.965 39.5723 204.238 39.6191 204.488 39.7129C204.738 39.8066 204.959 39.9395 205.151 40.1113C205.346 40.2832 205.508 40.4883 205.637 40.7266H205.707V39.6836H206.727V45.9121C206.727 46.3809 206.611 46.7891 206.381 47.1367C206.154 47.4844 205.83 47.752 205.408 47.9395C204.986 48.1309 204.488 48.2266 203.914 48.2266ZM203.867 44.7695C204.258 44.7695 204.592 44.6797 204.869 44.5C205.151 44.3164 205.365 44.0645 205.514 43.7441C205.666 43.4238 205.742 43.0547 205.742 42.6367V42.625C205.742 42.207 205.666 41.8359 205.514 41.5117C205.365 41.1875 205.151 40.9336 204.869 40.75C204.592 40.5664 204.258 40.4746 203.867 40.4746C203.477 40.4746 203.145 40.5664 202.871 40.75C202.602 40.9336 202.395 41.1875 202.25 41.5117C202.11 41.8359 202.039 42.207 202.039 42.625V42.6367C202.039 43.0547 202.11 43.4238 202.25 43.7441C202.395 44.0645 202.602 44.3164 202.871 44.5C203.145 44.6797 203.477 44.7695 203.867 44.7695ZM208.824 48.2148C208.758 48.2148 208.684 48.2109 208.602 48.2031C208.52 48.1992 208.443 48.1914 208.373 48.1797V47.3418C208.436 47.3535 208.504 47.3613 208.578 47.3652C208.652 47.3691 208.725 47.3711 208.795 47.3711C209.084 47.3711 209.32 47.2969 209.504 47.1484C209.691 47 209.842 46.7441 209.955 46.3809L210.072 46.0059L207.734 39.6836H208.824L210.77 45.5195L210.365 44.8809H210.846L210.441 45.5195L212.381 39.6836H213.453L210.986 46.3867C210.814 46.8594 210.633 47.2285 210.441 47.4941C210.25 47.7598 210.025 47.9453 209.768 48.0508C209.514 48.1602 209.199 48.2148 208.824 48.2148ZM214.461 46V39.6836H215.48V40.6445H215.574C215.715 40.3047 215.93 40.041 216.219 39.8535C216.512 39.666 216.865 39.5723 217.279 39.5723C217.564 39.5723 217.82 39.6191 218.047 39.7129C218.273 39.8066 218.469 39.9375 218.633 40.1055C218.797 40.2695 218.928 40.4609 219.025 40.6797H219.119C219.232 40.457 219.385 40.2637 219.576 40.0996C219.767 39.9316 219.988 39.8027 220.238 39.7129C220.492 39.6191 220.764 39.5723 221.053 39.5723C221.482 39.5723 221.846 39.6523 222.142 39.8125C222.443 39.9727 222.672 40.207 222.828 40.5156C222.984 40.8203 223.062 41.1934 223.062 41.6348V46H222.043V41.8691C222.043 41.5566 221.994 41.2988 221.896 41.0957C221.803 40.8887 221.658 40.7344 221.463 40.6328C221.267 40.5273 221.021 40.4746 220.724 40.4746C220.431 40.4746 220.176 40.541 219.957 40.6738C219.738 40.8066 219.568 40.9844 219.447 41.207C219.326 41.4258 219.265 41.6699 219.265 41.9395V46H218.246V41.7109C218.246 41.4609 218.191 41.2441 218.082 41.0605C217.976 40.873 217.824 40.7285 217.625 40.627C217.43 40.5254 217.199 40.4746 216.933 40.4746C216.66 40.4746 216.412 40.5469 216.189 40.6914C215.971 40.8359 215.797 41.0312 215.668 41.2773C215.543 41.5195 215.48 41.7891 215.48 42.0859V46H214.461ZM227.656 46V37.1758H228.675V46H227.656ZM230.316 46V39.6836H231.335V46H230.316ZM230.831 38.4648C230.64 38.4648 230.474 38.3965 230.333 38.2598C230.197 38.1191 230.128 37.9531 230.128 37.7617C230.128 37.5664 230.197 37.4004 230.333 37.2637C230.474 37.127 230.64 37.0586 230.831 37.0586C231.027 37.0586 231.193 37.127 231.329 37.2637C231.466 37.4004 231.535 37.5664 231.535 37.7617C231.535 37.9531 231.466 38.1191 231.329 38.2598C231.193 38.3965 231.027 38.4648 230.831 38.4648ZM235.085 46.1113C234.616 46.1113 234.202 46.041 233.843 45.9004C233.484 45.7559 233.195 45.5547 232.976 45.2969C232.761 45.0391 232.634 44.7363 232.595 44.3887H233.638C233.724 44.6504 233.892 44.8613 234.142 45.0215C234.392 45.1816 234.718 45.2617 235.12 45.2617C235.405 45.2617 235.655 45.2207 235.87 45.1387C236.089 45.0527 236.261 44.9375 236.386 44.793C236.511 44.6445 236.573 44.4746 236.573 44.2832V44.2715C236.573 44.0566 236.488 43.875 236.316 43.7266C236.144 43.5742 235.863 43.4512 235.472 43.3574L234.493 43.123C234.099 43.0293 233.775 42.9082 233.521 42.7598C233.267 42.6074 233.079 42.4219 232.958 42.2031C232.837 41.9805 232.777 41.7188 232.777 41.418V41.4121C232.777 41.0605 232.878 40.7461 233.081 40.4688C233.288 40.1914 233.57 39.9727 233.925 39.8125C234.28 39.6523 234.681 39.5723 235.126 39.5723C235.568 39.5723 235.958 39.6426 236.298 39.7832C236.642 39.9199 236.917 40.1152 237.124 40.3691C237.335 40.623 237.464 40.9219 237.511 41.2656H236.509C236.443 41.0156 236.29 40.8125 236.052 40.6562C235.814 40.5 235.503 40.4219 235.12 40.4219C234.87 40.4219 234.648 40.4629 234.452 40.5449C234.257 40.623 234.103 40.7324 233.989 40.873C233.876 41.0137 233.82 41.1777 233.82 41.3652V41.377C233.82 41.5176 233.857 41.6426 233.931 41.752C234.005 41.8613 234.12 41.957 234.277 42.0391C234.433 42.1211 234.634 42.1934 234.88 42.2559L235.853 42.4902C236.446 42.6348 236.888 42.8418 237.177 43.1113C237.47 43.3809 237.616 43.7422 237.616 44.1953V44.207C237.616 44.582 237.505 44.9141 237.282 45.2031C237.06 45.4883 236.757 45.7109 236.374 45.8711C235.995 46.0312 235.566 46.1113 235.085 46.1113ZM241.044 46.0469C240.396 46.0469 239.925 45.916 239.632 45.6543C239.343 45.3926 239.198 44.9609 239.198 44.3594V40.5273H238.202V39.6836H239.198V38.0488H240.253V39.6836H241.636V40.5273H240.253V44.1016C240.253 44.4727 240.323 44.7402 240.464 44.9043C240.605 45.0645 240.839 45.1445 241.167 45.1445C241.257 45.1445 241.333 45.1426 241.396 45.1387C241.462 45.1348 241.542 45.1289 241.636 45.1211V45.9883C241.538 46.0039 241.44 46.0176 241.343 46.0293C241.245 46.041 241.146 46.0469 241.044 46.0469ZM245.315 46.1113C244.714 46.1113 244.196 45.9785 243.763 45.7129C243.333 45.4473 243.001 45.0723 242.766 44.5879C242.536 44.0996 242.421 43.5254 242.421 42.8652V42.8594C242.421 42.207 242.536 41.6348 242.766 41.1426C243.001 40.6504 243.331 40.2656 243.757 39.9883C244.182 39.7109 244.681 39.5723 245.251 39.5723C245.825 39.5723 246.317 39.7051 246.727 39.9707C247.141 40.2363 247.458 40.6074 247.677 41.084C247.899 41.5566 248.011 42.1074 248.011 42.7363V43.1348H242.948V42.3203H247.489L246.985 43.0645V42.6602C246.985 42.1641 246.911 41.7559 246.763 41.4355C246.614 41.1152 246.409 40.877 246.147 40.7207C245.886 40.5605 245.585 40.4805 245.245 40.4805C244.905 40.4805 244.6 40.5645 244.331 40.7324C244.065 40.8965 243.854 41.1406 243.698 41.4648C243.542 41.7891 243.464 42.1875 243.464 42.6602V43.0645C243.464 43.5137 243.54 43.8984 243.692 44.2188C243.845 44.5352 244.061 44.7793 244.343 44.9512C244.624 45.1191 244.956 45.2031 245.339 45.2031C245.624 45.2031 245.872 45.1641 246.083 45.0859C246.294 45.0078 246.468 44.9082 246.604 44.7871C246.741 44.666 246.837 44.543 246.891 44.418L246.915 44.3652H247.934L247.923 44.4121C247.868 44.627 247.77 44.8359 247.63 45.0391C247.493 45.2383 247.315 45.4199 247.097 45.584C246.878 45.7441 246.618 45.873 246.317 45.9707C246.02 46.0645 245.686 46.1113 245.315 46.1113ZM249.253 46V39.6836H250.272V40.6328H250.366C250.526 40.2969 250.757 40.0371 251.057 39.8535C251.358 39.666 251.741 39.5723 252.206 39.5723C252.917 39.5723 253.462 39.7754 253.841 40.1816C254.223 40.584 254.415 41.1602 254.415 41.9102V46H253.395V42.1562C253.395 41.5859 253.274 41.1641 253.032 40.8906C252.794 40.6133 252.423 40.4746 251.919 40.4746C251.583 40.4746 251.292 40.5469 251.046 40.6914C250.8 40.8359 250.608 41.041 250.471 41.3066C250.339 41.5723 250.272 41.8906 250.272 42.2617V46H249.253ZM255.944 46V39.6836H256.963V46H255.944ZM256.46 38.4648C256.268 38.4648 256.102 38.3965 255.961 38.2598C255.825 38.1191 255.756 37.9531 255.756 37.7617C255.756 37.5664 255.825 37.4004 255.961 37.2637C256.102 37.127 256.268 37.0586 256.46 37.0586C256.655 37.0586 256.821 37.127 256.958 37.2637C257.094 37.4004 257.163 37.5664 257.163 37.7617C257.163 37.9531 257.094 38.1191 256.958 38.2598C256.821 38.3965 256.655 38.4648 256.46 38.4648ZM258.545 46V39.6836H259.565V40.6328H259.659C259.819 40.2969 260.049 40.0371 260.35 39.8535C260.651 39.666 261.034 39.5723 261.498 39.5723C262.209 39.5723 262.754 39.7754 263.133 40.1816C263.516 40.584 263.707 41.1602 263.707 41.9102V46H262.688V42.1562C262.688 41.5859 262.567 41.1641 262.325 40.8906C262.086 40.6133 261.715 40.4746 261.211 40.4746C260.875 40.4746 260.584 40.5469 260.338 40.6914C260.092 40.8359 259.901 41.041 259.764 41.3066C259.631 41.5723 259.565 41.8906 259.565 42.2617V46H258.545ZM267.815 48.2266C267.307 48.2266 266.864 48.1543 266.485 48.0098C266.106 47.8691 265.803 47.668 265.576 47.4062C265.354 47.1484 265.215 46.8477 265.16 46.5039L265.172 46.498H266.227L266.233 46.5039C266.287 46.7422 266.451 46.9375 266.725 47.0898C266.998 47.2461 267.362 47.3242 267.815 47.3242C268.381 47.3242 268.822 47.1953 269.139 46.9375C269.459 46.6836 269.619 46.3242 269.619 45.8594V44.582H269.526C269.393 44.8125 269.227 45.0098 269.028 45.1738C268.828 45.3379 268.604 45.4629 268.354 45.5488C268.104 45.6309 267.834 45.6719 267.545 45.6719C267.002 45.6719 266.531 45.543 266.133 45.2852C265.739 45.0234 265.434 44.6641 265.219 44.207C265.004 43.75 264.897 43.2266 264.897 42.6367V42.625C264.897 42.0352 265.004 41.5117 265.219 41.0547C265.438 40.5938 265.746 40.2324 266.145 39.9707C266.543 39.7051 267.018 39.5723 267.569 39.5723C267.865 39.5723 268.139 39.6191 268.389 39.7129C268.639 39.8066 268.86 39.9395 269.051 40.1113C269.246 40.2832 269.408 40.4883 269.537 40.7266H269.608V39.6836H270.627V45.9121C270.627 46.3809 270.512 46.7891 270.281 47.1367C270.055 47.4844 269.731 47.752 269.309 47.9395C268.887 48.1309 268.389 48.2266 267.815 48.2266ZM267.768 44.7695C268.158 44.7695 268.492 44.6797 268.77 44.5C269.051 44.3164 269.266 44.0645 269.414 43.7441C269.567 43.4238 269.643 43.0547 269.643 42.6367V42.625C269.643 42.207 269.567 41.8359 269.414 41.5117C269.266 41.1875 269.051 40.9336 268.77 40.75C268.492 40.5664 268.158 40.4746 267.768 40.4746C267.377 40.4746 267.045 40.5664 266.772 40.75C266.502 40.9336 266.295 41.1875 266.151 41.5117C266.01 41.8359 265.94 42.207 265.94 42.625V42.6367C265.94 43.0547 266.01 43.4238 266.151 43.7441C266.295 44.0645 266.502 44.3164 266.772 44.5C267.045 44.6797 267.377 44.7695 267.768 44.7695ZM277.465 46.0469C276.816 46.0469 276.346 45.916 276.053 45.6543C275.764 45.3926 275.619 44.9609 275.619 44.3594V40.5273H274.623V39.6836H275.619V38.0488H276.674V39.6836H278.057V40.5273H276.674V44.1016C276.674 44.4727 276.744 44.7402 276.885 44.9043C277.025 45.0645 277.26 45.1445 277.588 45.1445C277.678 45.1445 277.754 45.1426 277.816 45.1387C277.883 45.1348 277.963 45.1289 278.057 45.1211V45.9883C277.959 46.0039 277.861 46.0176 277.764 46.0293C277.666 46.041 277.566 46.0469 277.465 46.0469ZM281.754 46.1113C281.156 46.1113 280.638 45.9805 280.201 45.7188C279.767 45.4531 279.431 45.0762 279.193 44.5879C278.959 44.0996 278.842 43.5195 278.842 42.8477V42.8359C278.842 42.1602 278.959 41.5781 279.193 41.0898C279.431 40.6016 279.767 40.2266 280.201 39.9648C280.638 39.7031 281.156 39.5723 281.754 39.5723C282.355 39.5723 282.873 39.7031 283.306 39.9648C283.74 40.2266 284.074 40.6016 284.308 41.0898C284.547 41.5781 284.666 42.1602 284.666 42.8359V42.8477C284.666 43.5195 284.547 44.0996 284.308 44.5879C284.074 45.0762 283.74 45.4531 283.306 45.7188C282.873 45.9805 282.355 46.1113 281.754 46.1113ZM281.754 45.209C282.152 45.209 282.49 45.1152 282.767 44.9277C283.045 44.7402 283.256 44.4707 283.4 44.1191C283.549 43.7676 283.623 43.3438 283.623 42.8477V42.8359C283.623 42.3359 283.549 41.9102 283.4 41.5586C283.256 41.207 283.045 40.9395 282.767 40.7559C282.49 40.5684 282.152 40.4746 281.754 40.4746C281.355 40.4746 281.017 40.5684 280.74 40.7559C280.463 40.9395 280.25 41.207 280.101 41.5586C279.957 41.9102 279.885 42.3359 279.885 42.8359V42.8477C279.885 43.3438 279.957 43.7676 280.101 44.1191C280.25 44.4707 280.463 44.7402 280.74 44.9277C281.017 45.1152 281.355 45.209 281.754 45.209ZM291.111 46.1113C290.642 46.1113 290.228 46.041 289.869 45.9004C289.509 45.7559 289.22 45.5547 289.001 45.2969C288.787 45.0391 288.66 44.7363 288.621 44.3887H289.664C289.749 44.6504 289.917 44.8613 290.167 45.0215C290.417 45.1816 290.744 45.2617 291.146 45.2617C291.431 45.2617 291.681 45.2207 291.896 45.1387C292.115 45.0527 292.287 44.9375 292.412 44.793C292.537 44.6445 292.599 44.4746 292.599 44.2832V44.2715C292.599 44.0566 292.513 43.875 292.341 43.7266C292.169 43.5742 291.888 43.4512 291.497 43.3574L290.519 43.123C290.124 43.0293 289.8 42.9082 289.546 42.7598C289.292 42.6074 289.105 42.4219 288.984 42.2031C288.863 41.9805 288.802 41.7188 288.802 41.418V41.4121C288.802 41.0605 288.904 40.7461 289.107 40.4688C289.314 40.1914 289.595 39.9727 289.951 39.8125C290.306 39.6523 290.706 39.5723 291.152 39.5723C291.593 39.5723 291.984 39.6426 292.324 39.7832C292.667 39.9199 292.943 40.1152 293.15 40.3691C293.361 40.623 293.49 40.9219 293.537 41.2656H292.535C292.468 41.0156 292.316 40.8125 292.078 40.6562C291.839 40.5 291.529 40.4219 291.146 40.4219C290.896 40.4219 290.673 40.4629 290.478 40.5449C290.283 40.623 290.128 40.7324 290.015 40.873C289.902 41.0137 289.845 41.1777 289.845 41.3652V41.377C289.845 41.5176 289.882 41.6426 289.956 41.752C290.031 41.8613 290.146 41.957 290.302 42.0391C290.458 42.1211 290.66 42.1934 290.906 42.2559L291.878 42.4902C292.472 42.6348 292.914 42.8418 293.203 43.1113C293.496 43.3809 293.642 43.7422 293.642 44.1953V44.207C293.642 44.582 293.531 44.9141 293.308 45.2031C293.085 45.4883 292.783 45.7109 292.4 45.8711C292.021 46.0312 291.591 46.1113 291.111 46.1113ZM296.618 46.1113C296.22 46.1113 295.861 46.0352 295.54 45.8828C295.224 45.7305 294.972 45.5137 294.784 45.2324C294.601 44.9512 294.509 44.6191 294.509 44.2363V44.2246C294.509 43.8496 294.599 43.5293 294.779 43.2637C294.958 42.9941 295.22 42.7832 295.564 42.6309C295.908 42.4785 296.324 42.3887 296.812 42.3613L299.132 42.2207V43.0352L296.935 43.1758C296.454 43.2031 296.103 43.3027 295.88 43.4746C295.661 43.6465 295.552 43.8887 295.552 44.2012V44.2129C295.552 44.5332 295.673 44.7832 295.915 44.9629C296.158 45.1387 296.462 45.2266 296.829 45.2266C297.177 45.2266 297.486 45.1582 297.755 45.0215C298.025 44.8809 298.236 44.6914 298.388 44.4531C298.544 44.2148 298.622 43.9453 298.622 43.6445V41.6758C298.622 41.2852 298.503 40.9883 298.265 40.7852C298.031 40.5781 297.677 40.4746 297.204 40.4746C296.825 40.4746 296.515 40.543 296.273 40.6797C296.031 40.8125 295.868 41.002 295.786 41.248L295.781 41.2656H294.761L294.767 41.2305C294.822 40.8984 294.958 40.6094 295.177 40.3633C295.4 40.1133 295.687 39.9199 296.038 39.7832C296.39 39.6426 296.79 39.5723 297.24 39.5723C297.755 39.5723 298.191 39.6562 298.546 39.8242C298.906 39.9922 299.177 40.2344 299.361 40.5508C299.548 40.8633 299.642 41.2383 299.642 41.6758V46H298.622V45.0684H298.529C298.396 45.291 298.234 45.4805 298.042 45.6367C297.855 45.793 297.642 45.9121 297.404 45.9941C297.165 46.0723 296.904 46.1113 296.618 46.1113ZM303.497 46.1113C302.966 46.1113 302.501 45.9766 302.103 45.707C301.704 45.4375 301.396 45.0586 301.177 44.5703C300.958 44.0781 300.849 43.5039 300.849 42.8477V42.8359C300.849 42.1758 300.958 41.6016 301.177 41.1133C301.396 40.625 301.702 40.2461 302.097 39.9766C302.495 39.707 302.962 39.5723 303.497 39.5723C303.786 39.5723 304.058 39.6191 304.312 39.7129C304.569 39.8027 304.798 39.9297 304.997 40.0938C305.196 40.2578 305.353 40.4531 305.466 40.6797H305.56V37.1758H306.579V46H305.56V44.9922H305.466C305.337 45.2266 305.175 45.4277 304.98 45.5957C304.784 45.7598 304.562 45.8867 304.312 45.9766C304.062 46.0664 303.79 46.1113 303.497 46.1113ZM303.732 45.209C304.114 45.209 304.444 45.1133 304.722 44.9219C304.999 44.7305 305.212 44.459 305.36 44.1074C305.509 43.752 305.583 43.332 305.583 42.8477V42.8359C305.583 42.3477 305.509 41.9277 305.36 41.5762C305.212 41.2246 304.999 40.9531 304.722 40.7617C304.444 40.5703 304.114 40.4746 303.732 40.4746C303.349 40.4746 303.019 40.5703 302.741 40.7617C302.468 40.9492 302.257 41.2188 302.109 41.5703C301.964 41.9219 301.892 42.3438 301.892 42.8359V42.8477C301.892 43.3359 301.964 43.7578 302.109 44.1133C302.257 44.4648 302.468 44.7363 302.741 44.9277C303.019 45.1152 303.349 45.209 303.732 45.209ZM313.399 46.1113C312.93 46.1113 312.516 46.041 312.157 45.9004C311.798 45.7559 311.509 45.5547 311.29 45.2969C311.075 45.0391 310.948 44.7363 310.909 44.3887H311.952C312.038 44.6504 312.206 44.8613 312.456 45.0215C312.706 45.1816 313.032 45.2617 313.434 45.2617C313.72 45.2617 313.97 45.2207 314.184 45.1387C314.403 45.0527 314.575 44.9375 314.7 44.793C314.825 44.6445 314.887 44.4746 314.887 44.2832V44.2715C314.887 44.0566 314.802 43.875 314.63 43.7266C314.458 43.5742 314.177 43.4512 313.786 43.3574L312.807 43.123C312.413 43.0293 312.089 42.9082 311.835 42.7598C311.581 42.6074 311.393 42.4219 311.272 42.2031C311.151 41.9805 311.091 41.7188 311.091 41.418V41.4121C311.091 41.0605 311.192 40.7461 311.395 40.4688C311.602 40.1914 311.884 39.9727 312.239 39.8125C312.595 39.6523 312.995 39.5723 313.44 39.5723C313.882 39.5723 314.272 39.6426 314.612 39.7832C314.956 39.9199 315.231 40.1152 315.438 40.3691C315.649 40.623 315.778 40.9219 315.825 41.2656H314.823C314.757 41.0156 314.604 40.8125 314.366 40.6562C314.128 40.5 313.817 40.4219 313.434 40.4219C313.184 40.4219 312.962 40.4629 312.766 40.5449C312.571 40.623 312.417 40.7324 312.304 40.873C312.19 41.0137 312.134 41.1777 312.134 41.3652V41.377C312.134 41.5176 312.171 41.6426 312.245 41.752C312.319 41.8613 312.434 41.957 312.591 42.0391C312.747 42.1211 312.948 42.1934 313.194 42.2559L314.167 42.4902C314.761 42.6348 315.202 42.8418 315.491 43.1113C315.784 43.3809 315.93 43.7422 315.93 44.1953V44.207C315.93 44.582 315.819 44.9141 315.596 45.2031C315.374 45.4883 315.071 45.7109 314.688 45.8711C314.309 46.0312 313.88 46.1113 313.399 46.1113ZM319.768 46.1113C319.171 46.1113 318.653 45.9805 318.215 45.7188C317.782 45.4531 317.446 45.0762 317.208 44.5879C316.973 44.0996 316.856 43.5195 316.856 42.8477V42.8359C316.856 42.1602 316.973 41.5781 317.208 41.0898C317.446 40.6016 317.782 40.2266 318.215 39.9648C318.653 39.7031 319.171 39.5723 319.768 39.5723C320.37 39.5723 320.887 39.7031 321.321 39.9648C321.755 40.2266 322.089 40.6016 322.323 41.0898C322.561 41.5781 322.68 42.1602 322.68 42.8359V42.8477C322.68 43.5195 322.561 44.0996 322.323 44.5879C322.089 45.0762 321.755 45.4531 321.321 45.7188C320.887 45.9805 320.37 46.1113 319.768 46.1113ZM319.768 45.209C320.167 45.209 320.505 45.1152 320.782 44.9277C321.059 44.7402 321.27 44.4707 321.415 44.1191C321.563 43.7676 321.637 43.3438 321.637 42.8477V42.8359C321.637 42.3359 321.563 41.9102 321.415 41.5586C321.27 41.207 321.059 40.9395 320.782 40.7559C320.505 40.5684 320.167 40.4746 319.768 40.4746C319.37 40.4746 319.032 40.5684 318.755 40.7559C318.477 40.9395 318.264 41.207 318.116 41.5586C317.971 41.9102 317.899 42.3359 317.899 42.8359V42.8477C317.899 43.3438 317.971 43.7676 318.116 44.1191C318.264 44.4707 318.477 44.7402 318.755 44.9277C319.032 45.1152 319.37 45.209 319.768 45.209ZM323.922 46V39.6836H324.942V40.6328H325.036C325.196 40.2969 325.426 40.0371 325.727 39.8535C326.028 39.666 326.411 39.5723 326.875 39.5723C327.586 39.5723 328.131 39.7754 328.51 40.1816C328.893 40.584 329.084 41.1602 329.084 41.9102V46H328.065V42.1562C328.065 41.5859 327.944 41.1641 327.702 40.8906C327.463 40.6133 327.092 40.4746 326.588 40.4746C326.252 40.4746 325.961 40.5469 325.715 40.6914C325.469 40.8359 325.278 41.041 325.141 41.3066C325.008 41.5723 324.942 41.8906 324.942 42.2617V46H323.922ZM333.192 48.2266C332.684 48.2266 332.241 48.1543 331.862 48.0098C331.483 47.8691 331.18 47.668 330.953 47.4062C330.731 47.1484 330.592 46.8477 330.537 46.5039L330.549 46.498H331.604L331.61 46.5039C331.664 46.7422 331.828 46.9375 332.102 47.0898C332.375 47.2461 332.739 47.3242 333.192 47.3242C333.758 47.3242 334.2 47.1953 334.516 46.9375C334.836 46.6836 334.996 46.3242 334.996 45.8594V44.582H334.903C334.77 44.8125 334.604 45.0098 334.405 45.1738C334.205 45.3379 333.981 45.4629 333.731 45.5488C333.481 45.6309 333.211 45.6719 332.922 45.6719C332.379 45.6719 331.909 45.543 331.51 45.2852C331.116 45.0234 330.811 44.6641 330.596 44.207C330.381 43.75 330.274 43.2266 330.274 42.6367V42.625C330.274 42.0352 330.381 41.5117 330.596 41.0547C330.815 40.5938 331.123 40.2324 331.522 39.9707C331.92 39.7051 332.395 39.5723 332.946 39.5723C333.242 39.5723 333.516 39.6191 333.766 39.7129C334.016 39.8066 334.237 39.9395 334.428 40.1113C334.623 40.2832 334.785 40.4883 334.914 40.7266H334.985V39.6836H336.004V45.9121C336.004 46.3809 335.889 46.7891 335.659 47.1367C335.432 47.4844 335.108 47.752 334.686 47.9395C334.264 48.1309 333.766 48.2266 333.192 48.2266ZM333.145 44.7695C333.535 44.7695 333.869 44.6797 334.147 44.5C334.428 44.3164 334.643 44.0645 334.791 43.7441C334.944 43.4238 335.02 43.0547 335.02 42.6367V42.625C335.02 42.207 334.944 41.8359 334.791 41.5117C334.643 41.1875 334.428 40.9336 334.147 40.75C333.869 40.5664 333.535 40.4746 333.145 40.4746C332.754 40.4746 332.422 40.5664 332.149 40.75C331.879 40.9336 331.672 41.1875 331.528 41.5117C331.387 41.8359 331.317 42.207 331.317 42.625V42.6367C331.317 43.0547 331.387 43.4238 331.528 43.7441C331.672 44.0645 331.879 44.3164 332.149 44.5C332.422 44.6797 332.754 44.7695 333.145 44.7695ZM339.731 46.1113C339.262 46.1113 338.848 46.041 338.488 45.9004C338.129 45.7559 337.84 45.5547 337.621 45.2969C337.406 45.0391 337.279 44.7363 337.24 44.3887H338.283C338.369 44.6504 338.537 44.8613 338.787 45.0215C339.037 45.1816 339.363 45.2617 339.766 45.2617C340.051 45.2617 340.301 45.2207 340.516 45.1387C340.735 45.0527 340.906 44.9375 341.031 44.793C341.156 44.6445 341.219 44.4746 341.219 44.2832V44.2715C341.219 44.0566 341.133 43.875 340.961 43.7266C340.789 43.5742 340.508 43.4512 340.117 43.3574L339.139 43.123C338.744 43.0293 338.42 42.9082 338.166 42.7598C337.912 42.6074 337.725 42.4219 337.604 42.2031C337.483 41.9805 337.422 41.7188 337.422 41.418V41.4121C337.422 41.0605 337.524 40.7461 337.727 40.4688C337.934 40.1914 338.215 39.9727 338.57 39.8125C338.926 39.6523 339.326 39.5723 339.772 39.5723C340.213 39.5723 340.604 39.6426 340.944 39.7832C341.287 39.9199 341.563 40.1152 341.77 40.3691C341.981 40.623 342.11 40.9219 342.156 41.2656H341.154C341.088 41.0156 340.936 40.8125 340.697 40.6562C340.459 40.5 340.149 40.4219 339.766 40.4219C339.516 40.4219 339.293 40.4629 339.098 40.5449C338.902 40.623 338.748 40.7324 338.635 40.873C338.522 41.0137 338.465 41.1777 338.465 41.3652V41.377C338.465 41.5176 338.502 41.6426 338.576 41.752C338.651 41.8613 338.766 41.957 338.922 42.0391C339.078 42.1211 339.279 42.1934 339.526 42.2559L340.498 42.4902C341.092 42.6348 341.533 42.8418 341.822 43.1113C342.115 43.3809 342.262 43.7422 342.262 44.1953V44.207C342.262 44.582 342.151 44.9141 341.928 45.2031C341.705 45.4883 341.402 45.7109 341.02 45.8711C340.641 46.0312 340.211 46.1113 339.731 46.1113Z" fill="white"/>
<path d="M339.012 28V20.7168H338.918L336.768 22.2754V21.1621L339.018 19.5449H340.066V28H339.012ZM342.176 28V21.6836H343.195V22.6445H343.289C343.43 22.3047 343.644 22.041 343.933 21.8535C344.226 21.666 344.58 21.5723 344.994 21.5723C345.279 21.5723 345.535 21.6191 345.762 21.7129C345.988 21.8066 346.183 21.9375 346.347 22.1055C346.512 22.2695 346.642 22.4609 346.74 22.6797H346.834C346.947 22.457 347.099 22.2637 347.291 22.0996C347.482 21.9316 347.703 21.8027 347.953 21.7129C348.207 21.6191 348.478 21.5723 348.767 21.5723C349.197 21.5723 349.56 21.6523 349.857 21.8125C350.158 21.9727 350.387 22.207 350.543 22.5156C350.699 22.8203 350.777 23.1934 350.777 23.6348V28H349.758V23.8691C349.758 23.5566 349.709 23.2988 349.611 23.0957C349.517 22.8887 349.373 22.7344 349.178 22.6328C348.982 22.5273 348.736 22.4746 348.439 22.4746C348.146 22.4746 347.89 22.541 347.672 22.6738C347.453 22.8066 347.283 22.9844 347.162 23.207C347.041 23.4258 346.98 23.6699 346.98 23.9395V28H345.961V23.7109C345.961 23.4609 345.906 23.2441 345.797 23.0605C345.691 22.873 345.539 22.7285 345.34 22.627C345.144 22.5254 344.914 22.4746 344.648 22.4746C344.375 22.4746 344.127 22.5469 343.904 22.6914C343.685 22.8359 343.512 23.0312 343.383 23.2773C343.258 23.5195 343.195 23.7891 343.195 24.0859V28H342.176Z" fill="white" fill-opacity="0.5"/>
</svg>
